<svg xmlns="http://www.w3.org/2000/svg" width="36.634" height="90" viewBox="0 0 36.634 90"><path d="M-727.061-2376.212h-.015a.19.19,0,0,1-.159-.153,1.046,1.046,0,0,1-.018-.2.837.837,0,0,1,.186-.524c.034-.077.062-.159.093-.246a1.908,1.908,0,0,1,.256-.541c.7-1.826,1.454-3.659,2.188-5.432.474-1.146.965-2.331,1.433-3.5.7-1.757,1.378-3.559,2.032-5.3q.4-1.079.811-2.154a1.115,1.115,0,0,1-.712-.486,12.507,12.507,0,0,1-1.374-2.223,1.318,1.318,0,0,1-.323-.813c0-.029,0-.058,0-.088a.187.187,0,0,1,.143-.17.165.165,0,0,1,.046-.006.189.189,0,0,1,.16.09l.4.651.421.551q.726.951,1.456,1.9c.117-.257.212-.528.311-.811a9.143,9.143,0,0,1,.464-1.155.188.188,0,0,1,.2-.1.189.189,0,0,1,.156.162,5.325,5.325,0,0,1,.046.712,8.64,8.64,0,0,1-.351,2.177,47.824,47.824,0,0,1-2.656,7.179c-.973,2.207-2.059,4.4-3.11,6.521q-.545,1.1-1.085,2.2c-.048.1-.1.186-.154.273-.017.029-.034.058-.05.086a1.43,1.43,0,0,1-.2.475,1.991,1.991,0,0,0-.116.221l-.15.3-.15.3a.186.186,0,0,1-.168.105Zm-2.6-.187-.027-.046a.892.892,0,0,1-.166-.476.6.6,0,0,1,.007-.085l-.105-.483-1.507-6.934a.437.437,0,0,1-.011-.1.389.389,0,0,1,.044-.18.826.826,0,0,1-.131-.036,20.7,20.7,0,0,1-3.092-1.445,1,1,0,0,1-.589-.8l-.346-.814c-.284-.668-.568-1.335-.845-2.005a1.9,1.9,0,0,1-.142-.735,3.959,3.959,0,0,1,.272-1.264c.041-.24.08-.478.12-.717.09-.546.185-1.112.287-1.666a8.693,8.693,0,0,0,.144-1.591,9.088,9.088,0,0,0-.054-.973,14.888,14.888,0,0,1-.081-1.617c0-.63.032-1.221.065-1.726.082-1.213.106-2.44.107-3.659,0-.89-.012-1.775-.024-2.648q-.014-.957-.022-1.914c0-.056,0-.112,0-.167a36.671,36.671,0,0,1,.343-5.108l.006-.056a.728.728,0,0,1,.19-.47l.007-.007a.19.19,0,0,1,.2-.035.189.189,0,0,1,.116.176l-.044,3.739q-.054,4.729-.112,9.451l-.006.49c-.008.582-.016,1.171-.017,1.763,0,.866.015,1.738.072,2.6q.015.224.015.446a12.4,12.4,0,0,1-.847,4.092,2.463,2.463,0,0,0-.1.715,2.948,2.948,0,0,0,.268,1.168c.228.527.432,1.073.629,1.6.084.225.167.449.253.672a2.134,2.134,0,0,0,.359.378,2.133,2.133,0,0,1-.338-.691c-.033-.121-.068-.241-.1-.362a8.406,8.406,0,0,1-.28-1.163.192.192,0,0,1,0-.026.188.188,0,0,1,.137-.183.162.162,0,0,1,.043-.007.187.187,0,0,1,.182.114c.049.113.1.225.151.338a7.1,7.1,0,0,1,.323.783,2.205,2.205,0,0,0,1.412,1.448c.335.126.669.258,1,.391l.424.167c.115.015.227.041.336.064a2.255,2.255,0,0,0,.479.072.786.786,0,0,0,.413-.11.19.19,0,0,1,.225.025.192.192,0,0,1,.059.142.189.189,0,0,1-.02.081.677.677,0,0,1-.667.417,3.64,3.64,0,0,1-1.025-.223,5.524,5.524,0,0,1-.561-.1l.183.086.606.291a.443.443,0,0,0,.186.063.353.353,0,0,0,.178-.063.189.189,0,0,1,.23.025.192.192,0,0,1,.057.14.184.184,0,0,1-.025.089.715.715,0,0,1-.3.305.181.181,0,0,1,.045.056,21.97,21.97,0,0,1,1.717,7.044,1.867,1.867,0,0,1,.086.6c0,.136-.01.271-.019.4l-.01.15a.19.19,0,0,1-.145.174.238.238,0,0,1-.044,0A.19.19,0,0,1-729.663-2376.4Zm-1.66-8.481h0Zm.664-.666h.005l.016,0h-.013c-.028,0-.058,0-.089,0C-730.714-2385.549-730.684-2385.545-730.66-2385.545Zm13.679,9.2a.19.19,0,0,1-.085-.162.194.194,0,0,1,.009-.054,10.157,10.157,0,0,1,1.043-2.108,93,93,0,0,1,5.438-7.809l.2-.263a35.906,35.906,0,0,0,3.439-5.109c.232-.447.449-.914.658-1.365.1-.211.2-.423.3-.633a.189.189,0,0,1,.228-.1.19.19,0,0,1,.132.177.191.191,0,0,1,0,.035c-.045.273-.1.539-.158.8a5.674,5.674,0,0,0,1.93-3.974q0-.212-.017-.43c0-.005,0-.011,0-.016a.188.188,0,0,1,.127-.177l.017-.005a.194.194,0,0,1,.045-.006h.023a.188.188,0,0,1,.134.083,1.964,1.964,0,0,1,.311,1.117,2.927,2.927,0,0,1-.06.562,5.327,5.327,0,0,1-2.3,3.171.187.187,0,0,1-.056.025.177.177,0,0,1-.047.007.189.189,0,0,1-.146-.069.167.167,0,0,1-.018-.031c-.062.255-.129.5-.2.748a.579.579,0,0,0,.279.094.821.821,0,0,0,.455-.21c.229-.165.466-.322.7-.474a7.534,7.534,0,0,0,1.64-1.32.605.605,0,0,1-.014-.132.95.95,0,0,1,.189-.5,1.305,1.305,0,0,0,.09-.154,6.681,6.681,0,0,0,.8-2.913.189.189,0,0,1,.14-.182.182.182,0,0,1,.049-.007.19.19,0,0,1,.121.044l0,0,0,0a.2.2,0,0,1,.023.025h0l.007.01.007.011a1.426,1.426,0,0,1,.2.745,2.918,2.918,0,0,1-.07.565,4.841,4.841,0,0,1-.266.882,9.357,9.357,0,0,0,.629-.9,1.747,1.747,0,0,0,.213-.869c0-.033,0-.067,0-.1-.041-.86-.07-1.734-.1-2.58-.011-.334-.022-.667-.035-1.006a13.95,13.95,0,0,1-.1-1.442,5.144,5.144,0,0,1,.134-1.216,6.247,6.247,0,0,0,.138-1.469c0-.179,0-.357-.007-.533l0-.184c-.017-1.021-.029-2.041-.041-3.062-.031-2.673-.064-5.437-.191-8.151l-.032-.711c-.046-1-.093-2.026-.159-3.036a4.7,4.7,0,0,0-.331-1.273c-.049-.137-.1-.274-.144-.411a23.812,23.812,0,0,1-1.025-7.519q0-.5.01-.971c.008-.431.013-.877.013-1.336a33.718,33.718,0,0,0-.431-5.777,29.176,29.176,0,0,0-1.543-5.39,2.477,2.477,0,0,0-2.086-1.462,32.889,32.889,0,0,0-4.265-.5c-.328-.023-.658-.047-.987-.073a9.208,9.208,0,0,1-4.65-1.429,5.184,5.184,0,0,1-1.9-2.508,5.692,5.692,0,0,1-.431.675,9.574,9.574,0,0,1-2.222,2.261,3.249,3.249,0,0,1-1.887.67,2.964,2.964,0,0,1-1.271-.3,3.807,3.807,0,0,1,.131.956,2.6,2.6,0,0,1-.135.829,4.394,4.394,0,0,1-2.393,3.412,24.16,24.16,0,0,1-5.162,2.121,2.774,2.774,0,0,0-2.028,2.634,22.84,22.84,0,0,0-.191,3.182c0,.775.024,1.547.048,2.308l.005.171c.037,1.214.107,2.449.174,3.643.1,1.762.2,3.568.2,5.374,0,.653-.013,1.307-.044,1.958a12.607,12.607,0,0,1-.581,3.6c-.01.028-.018.056-.026.085a.725.725,0,0,1-.346.491.185.185,0,0,1-.092.024h-.022a.185.185,0,0,1-.089-.035.191.191,0,0,1-.077-.156.192.192,0,0,1,0-.034,22.574,22.574,0,0,0,.438-4.525q0-.386-.013-.778c-.046-1.467-.132-2.958-.216-4.4-.108-1.861-.22-3.785-.244-5.684l0-.133c-.007-.508-.014-1.021-.014-1.536a23.9,23.9,0,0,1,.316-4.3,3.4,3.4,0,0,1,2.183-2.63c.717-.322,1.462-.606,2.182-.881.918-.35,1.867-.713,2.761-1.153a4.313,4.313,0,0,0,2.57-2.626c.049-.163.087-.328.127-.5.016-.067.031-.135.047-.2a.379.379,0,0,1-.009-.078.286.286,0,0,1,0-.044,2.42,2.42,0,0,0,.032-.4,2.525,2.525,0,0,0-1.029-1.877,9.192,9.192,0,0,1-2.728-5.17,4.956,4.956,0,0,0-.279-.994,8.142,8.142,0,0,0,.147,1.364,3.578,3.578,0,0,1,.05.6,4.947,4.947,0,0,1-1.117,2.851.187.187,0,0,1-.154.08h-.015a.22.22,0,0,1-.041-.008.19.19,0,0,1-.133-.177c0-.011,0-.022,0-.033a1.447,1.447,0,0,1,.216-.732,1.775,1.775,0,0,0,.086-.17,5.467,5.467,0,0,0,.379-2.123,14.523,14.523,0,0,0-.094-1.485,8.53,8.53,0,0,1-.052-.886,5.04,5.04,0,0,1,.042-.667,2.877,2.877,0,0,1,1.934-2.419c.284-.116.571-.228.858-.338a13.948,13.948,0,0,0,2.859-1.365,6.873,6.873,0,0,0,1.135-.982l.795-1.11a.189.189,0,0,1,.164-.078.183.183,0,0,1,.073.02.19.19,0,0,1,.1.167.184.184,0,0,1-.009.058,3.035,3.035,0,0,1-.728,1.294,6.053,6.053,0,0,1-3.36,2.368,4.37,4.37,0,0,0-2.284,1.376,2.706,2.706,0,0,0-.66,1.28c.057.176.118.349.179.524a7.363,7.363,0,0,1,.392,1.408,11.674,11.674,0,0,0,2.389,4.688,3.9,3.9,0,0,0,2.273,1.521l.023,0,.076.01h0l.024,0a1.957,1.957,0,0,0,.97-.153,2.536,2.536,0,0,0,.315-.161,8.629,8.629,0,0,0,2.167-1.853,4.769,4.769,0,0,0,1.041-3c.012-.319.016-.635.016-.955,0-.249,0-.5,0-.759s0-.524,0-.789a.187.187,0,0,1,.089-.16.188.188,0,0,1,.1-.029.187.187,0,0,1,.043.011c-.014-.18-.028-.359-.04-.536a11.045,11.045,0,0,0-.221-1.815,8.632,8.632,0,0,0-2.595-4.4.19.19,0,0,1-.059-.135.186.186,0,0,1,.034-.111.189.189,0,0,1,.24-.06,5.37,5.37,0,0,1,2.471,2.641,12.3,12.3,0,0,1,.886,3.732,40.49,40.49,0,0,0,.973,5.086.242.242,0,0,1,.008.066.438.438,0,0,1-.015.094c0,.017-.01.039-.014.067a.188.188,0,0,1-.156.152.186.186,0,0,1-.2-.094,10.211,10.211,0,0,1-.973-2.644q0,.183,0,.366a10.944,10.944,0,0,1-.158,1.979,1.169,1.169,0,0,1-.037.149c.007,0,.013-.005.02-.005a.191.191,0,0,1,.151.076l.206.275a12.584,12.584,0,0,0,1.089,1.331,6.076,6.076,0,0,0,4.108,1.8c.21.014.419.026.628.04a9.313,9.313,0,0,1-1-2.358,30.671,30.671,0,0,1-1-5.109l-.09-.652a26.4,26.4,0,0,0-1.642-6.69,8.256,8.256,0,0,0-2.16-3.211,4.615,4.615,0,0,0-2.069-1.081,2.647,2.647,0,0,1-1.025-.151.19.19,0,0,1-.126-.179.186.186,0,0,1,0-.025.19.19,0,0,1,.174-.163c.092-.007.185-.017.276-.026a5.336,5.336,0,0,1,.557-.039,1.866,1.866,0,0,1,.695.12,4.681,4.681,0,0,1,3.213,2.383,19.279,19.279,0,0,1,2.268,6.2c.262,1.165.5,2.354.725,3.5.41,2.069.833,4.209,1.426,6.271.024.086.051.173.079.26a4.71,4.71,0,0,1,.221.98c.208.013.416.027.624.039.934.056,1.9.113,2.849.19a8.358,8.358,0,0,1,3.136.728,2.816,2.816,0,0,1,1.506,1.761,37.177,37.177,0,0,1,1.593,6.755c.121,1.078.152,2.175.183,3.236.013.492.028,1,.051,1.5a82.962,82.962,0,0,0,1.226,11.45,37.194,37.194,0,0,1,.616,6.868q0,1.486-.117,2.993c-.132,1.734-.172,3.508-.211,5.224l-.017.762c-.01.441-.059.884-.107,1.311a12.912,12.912,0,0,0-.106,1.465c0,.113,0,.226.011.339a1.977,1.977,0,0,1,.082.608c0,.056,0,.111,0,.165l.06.657.06.657a8.972,8.972,0,0,1,.115,1.4,6.45,6.45,0,0,1-.151,1.415,1.236,1.236,0,0,1-.318.577,16.492,16.492,0,0,1-2.065,2.722,12.073,12.073,0,0,1-1.968,1.546c-.2.139-.408.277-.607.418a.719.719,0,0,1-.415.144.658.658,0,0,1-.511-.265,10.867,10.867,0,0,1-1.105,2.266c-1.262,1.956-2.679,3.843-4.05,5.669-.607.807-1.233,1.642-1.837,2.471-.721.987-1.462,1.984-2.179,2.948q-.418.562-.836,1.125a3.869,3.869,0,0,1-.535.608.188.188,0,0,1-.125.047A.187.187,0,0,1-716.981-2376.345Zm11.282-15.027.012,0-.015,0Zm-14.5-74.065c-.059,0-.117,0-.175,0C-720.312-2465.433-720.255-2465.434-720.2-2465.437Zm-.105-.2-.052,0-.026,0h.078Zm-10.008,79.579a.188.188,0,0,1-.046-.016l-.967-.492-.348-.128c-.265-.1-.538-.2-.809-.285a.9.9,0,0,1-.69-.878.327.327,0,0,1-.01-.043s0-.008,0-.012v-.015a3.831,3.831,0,0,1-.312-1.466,3.486,3.486,0,0,1,.391-1.6l.03-.061c.109-.221.273-.556.623-.556.018,0,.037,0,.057,0,.4.043.5.462.559.712l.01.041c.189.774.329,1.409.439,2a1.921,1.921,0,0,0,.416.948.188.188,0,0,1,.046.127.191.191,0,0,1-.04.113.187.187,0,0,1-.055.047.189.189,0,0,1-.094.025.185.185,0,0,1-.053-.008.19.19,0,0,1-.033-.013,1.028,1.028,0,0,1-.328-.259,1.567,1.567,0,0,1-.051.36.188.188,0,0,1-.182.14h0a.187.187,0,0,1-.181-.144,10,10,0,0,1-.263-2.3,3.059,3.059,0,0,0-.176-.94c-.009-.026-.016-.053-.024-.081a.287.287,0,0,0-.049-.118.379.379,0,0,0-.07.1c-.022.036-.041.071-.064.1a1.915,1.915,0,0,0-.329,1.143q0,.128.01.267l.071.948.029.384a3.515,3.515,0,0,0,1.3.785c.155.066.309.13.447.2a2.117,2.117,0,0,1,.944.667.186.186,0,0,1,.044.119.189.189,0,0,1-.041.12.186.186,0,0,1-.1.064.181.181,0,0,1-.049.007A.19.19,0,0,1-730.309-2386.059Zm-2.179-5.36c.016,0,.032,0,.049,0h-.015C-732.466-2391.423-732.476-2391.42-732.487-2391.419Zm2.371,2.829a.189.189,0,0,1-.181-.134,19.354,19.354,0,0,1-.745-3.361c-.049-.338-.082-.68-.113-1.012a12.264,12.264,0,0,0-.217-1.561.188.188,0,0,1,0-.042.189.189,0,0,1,.12-.175.185.185,0,0,1,.069-.013.19.19,0,0,1,.164.094,4.26,4.26,0,0,1,.447,1.756l0,.026c.067.569.187,1.143.3,1.7a15.881,15.881,0,0,1,.346,2.129l0,.051c0,.055.009.114.009.176a1.016,1.016,0,0,1-.021.221.188.188,0,0,1-.177.149Zm24.311-5.378a.776.776,0,0,1-.619-.828c-.015-.186-.021-.37-.021-.553a11.756,11.756,0,0,1,.246-2.2c.052-.27.108-.54.165-.81a14.177,14.177,0,0,0,.393-2.834,34.984,34.984,0,0,0-2.178-8.125,15.334,15.334,0,0,1-1.053-5.332,10.764,10.764,0,0,1,.276-2.424,75.834,75.834,0,0,0,1.4-9.97l.059-.612a3.293,3.293,0,0,1-1.773,1.49,7.061,7.061,0,0,1-2.534.519,5.28,5.28,0,0,1-2.978-.922,5.687,5.687,0,0,1-2.164-3.016,1.775,1.775,0,0,1-.22-.661c-.014-.075-.028-.15-.047-.225a.184.184,0,0,1-.005-.049.188.188,0,0,1,.108-.167.189.189,0,0,1,.054-.016l.027,0a.183.183,0,0,1,.05.007.184.184,0,0,1,.1.069,1.808,1.808,0,0,1,.391.779,8.63,8.63,0,0,0,1.548,2.082,4.446,4.446,0,0,0,3.125,1.264,6.164,6.164,0,0,0,1.71-.263,4.1,4.1,0,0,0,2.269-1.67,2.208,2.208,0,0,0,.426-1.3,2.514,2.514,0,0,0-.058-.518l-.6-4.758a3.558,3.558,0,0,1-.146-1,2.85,2.85,0,0,1,.045-.488.189.189,0,0,1,.184-.156h0a.188.188,0,0,1,.185.15l.2.93c.1.5.207,1,.313,1.5.246,1.148.5,2.335.66,3.524.013.1.023.2.031.306l.01.112a3.184,3.184,0,0,1,.169,1,24.119,24.119,0,0,1,.4,4.74c0,.886-.026,1.768-.051,2.638l0,.07a.188.188,0,0,1-.182.183h-.007a.19.19,0,0,1-.188-.17l-.122-1.171c-.092-.9-.188-1.826-.291-2.737q-.022-.193-.049-.386a61.843,61.843,0,0,1-.992,9.935,11.532,11.532,0,0,0-.174,1.974,13.1,13.1,0,0,0,.714,4.179,44.3,44.3,0,0,1,1.685,6.375,4.078,4.078,0,0,1,.041.672,2.56,2.56,0,0,0,.1.845.568.568,0,0,1,.039.073l.013-.025a3.227,3.227,0,0,1,.5-.839,4.413,4.413,0,0,0,.649-2.521q0-.152,0-.3a48.194,48.194,0,0,0-.531-6.15l-.007-.059c-.321-2.478-.753-5.012-1.321-7.749a.739.739,0,0,1-.123-.452.648.648,0,0,0-.025-.194.191.191,0,0,1-.011-.069.189.189,0,0,1,.079-.15.187.187,0,0,1,.11-.036.184.184,0,0,1,.047.006.188.188,0,0,1,.072.036.889.889,0,0,1,.308.641,44.707,44.707,0,0,1,1.857,8.411c.266,1.827.437,3.513.527,5.153q.013.23.012.449a4.739,4.739,0,0,1-1.245,3.414,6.435,6.435,0,0,0-1.076,3.112c-.045.273-.092.554-.146.832q-.049.242-.1.483a12.079,12.079,0,0,0-.328,2.435q0,.128.006.256c0,.059,0,.119,0,.177s0,.109.005.164c.016.366.135.378.185.383h.023c.113,0,.188-.108.266-.386.095-.336.171-.686.245-1.025.03-.138.059-.275.09-.412a2.722,2.722,0,0,1,.272-1.057.188.188,0,0,1,.193-.114h.008a.188.188,0,0,1,.159.167,3.04,3.04,0,0,1,.018.329,1.911,1.911,0,0,1-.178.834,4.413,4.413,0,0,1-.4,1.678.766.766,0,0,1-.693.534A.883.883,0,0,1-705.806-2393.969Zm.133-.178h0c-.024,0-.049,0-.075,0a.637.637,0,0,0,.07,0Zm-.1-.008Zm-5.641-31.689h-.014l-.1,0C-711.5-2425.845-711.459-2425.842-711.419-2425.844Zm-20.351,30.458a2.724,2.724,0,0,1-.915-1.984,7.271,7.271,0,0,1-.066-1.008,16.075,16.075,0,0,1,.433-3.2l.06-.3a53.606,53.606,0,0,1,1.451-5.726,18.749,18.749,0,0,0,.811-5.273c.1-3.831.27-7.72.436-11.483q.111-2.518.216-5.037a3.456,3.456,0,0,1,.15-.917.189.189,0,0,1,.034-.063.183.183,0,0,1,.168-.068.19.19,0,0,1,.167.174c.021.285.042.57.066.855.049.64.1,1.3.132,1.956l.012.248c.029.611.059,1.238.06,1.863,0,.245,0,.489-.014.733-.185,4.359-.4,8.708-.617,13.152a9.5,9.5,0,0,1-.193,1.617l.087-.157c.408-.728.8-1.427,1.187-2.125l.232-.416c.266-.476.54-.968.8-1.456a12.071,12.071,0,0,0,1.432-5.7,13.507,13.507,0,0,0-.593-3.878,28.265,28.265,0,0,0-1.3-3.286c-.111-.249-.221-.5-.33-.75-.063-.145-.12-.292-.175-.439-.022-.059-.043-.116-.067-.174a2.981,2.981,0,0,1-.438-.97.2.2,0,0,1-.008-.054.191.191,0,0,1,.087-.161.19.19,0,0,1,.227.017,2.154,2.154,0,0,1,.581.876c.115.183.223.371.332.558a6.129,6.129,0,0,0,1.117,1.537,5.451,5.451,0,0,0,3.848,1.409c.181,0,.369-.005.56-.018,1.937-.126,3.219-1.34,3.921-3.711a12.981,12.981,0,0,0,.354-1.81.19.19,0,0,1,.187-.162h0a.191.191,0,0,1,.185.169,5.713,5.713,0,0,1,.033.6c0,1.987-.961,4.315-2.786,5.18a6.867,6.867,0,0,1-2.941.711,4.86,4.86,0,0,1-3.048-1.016c.023.06.047.119.07.178a14.527,14.527,0,0,1,1.176,5.477q0,.564-.057,1.123a11.639,11.639,0,0,1-1.436,4.392,43.816,43.816,0,0,1-3.238,5.124,3.52,3.52,0,0,0-.284.49c-.039.076-.077.151-.119.226a29.53,29.53,0,0,1-.832,2.874c-.178.547-.364,1.113-.525,1.675l-.111.382a17.277,17.277,0,0,0-.906,4.766c0,.218.008.436.025.655a4.511,4.511,0,0,0,.634,2.064.189.189,0,0,1,.028.1.189.189,0,0,1-.062.138.189.189,0,0,1-.126.049A.188.188,0,0,1-731.769-2395.385Zm8.926-28.848c.032,0,.066,0,.1,0h-.044l-.158,0C-722.911-2424.237-722.878-2424.233-722.843-2424.233Zm-4.034-16.148a.19.19,0,0,1-.179-.181s0-.006,0-.009a.188.188,0,0,1,.165-.185c.378-.05.756-.1,1.135-.158a28.271,28.271,0,0,1,3.942-.371c.251,0,.5.006.737.02a.189.189,0,0,1,.178.181s0,.006,0,.009a.19.19,0,0,1-.163.186c-.3.041-.6.084-.907.127a29.85,29.85,0,0,1-4.2.4C-726.41-2440.363-726.647-2440.369-726.877-2440.381Zm.707-.171h-.2q-.249,0-.5-.015C-726.634-2440.557-726.4-2440.552-726.169-2440.552Zm5.081-.525c-.242-.013-.485-.019-.726-.019h0C-721.575-2441.1-721.332-2441.09-721.088-2441.076Zm-9.462.3a.189.189,0,0,1-.076-.155.184.184,0,0,1,.005-.042,11.4,11.4,0,0,0,.348-2.738,11,11,0,0,0-1.068-4.724,13.406,13.406,0,0,1-1.251-5.73,18.494,18.494,0,0,1,.532-4.3c.047-.2.092-.4.137-.592a13.884,13.884,0,0,1,1.231-3.71,6.287,6.287,0,0,1,5.754-3.446h.188a7.857,7.857,0,0,1,2.96.5.189.189,0,0,1,.12.174.189.189,0,0,1,0,.042.191.191,0,0,1-.185.148h-.011c-.5-.028-.954-.041-1.4-.041a15.971,15.971,0,0,0-3.276.313,4.789,4.789,0,0,0-3.641,3.061,20.466,20.466,0,0,0-1.264,5.383l-.048.362a23.663,23.663,0,0,0-.267,3.029q0,.158,0,.316a12,12,0,0,0,1.133,4.675c.184.409.355.832.52,1.239l.156.384a6.39,6.39,0,0,1,.482,2.456,9.224,9.224,0,0,1-.547,2.97.707.707,0,0,1-.327.437.185.185,0,0,1-.094.025A.184.184,0,0,1-730.55-2440.775Zm5.614-25.247h0Zm7,24.448a.187.187,0,0,1-.033-.109.19.19,0,0,1,.057-.132c.121-.119,1.973-.96,3.505-1.646.558-.248,3.355-1.5,3.579-1.533l.031,0a.189.189,0,0,1,.175.117.188.188,0,0,1,.014.071.189.189,0,0,1-.081.156,19.812,19.812,0,0,1-4.648,2.207c-.781.291-1.589.59-2.367.938a.193.193,0,0,1-.077.016A.187.187,0,0,1-717.934-2441.574Z" transform="translate(736.575 2466.212)"/></svg>