<svg xmlns="http://www.w3.org/2000/svg" width="84.37" height="90" viewBox="0 0 84.37 90"><defs><style>.a{fill:#363636;}</style></defs><g transform="translate(-139.279 -133.295)"><g transform="translate(139.279 133.295)"><path class="a" d="M209.276,145.141c-.531-.307-1.025-.58-1.5-.877-.237-.147-.386-.066-.574.092a4.921,4.921,0,0,0-1.822,2.429c-.037.138-.075.339-.288.277-.164-.047-.187-.214-.2-.376a4.429,4.429,0,0,1,.959-3.368c-.552-.254-1.078-.468-1.576-.737-.3-.165-.384.034-.507.211a6.641,6.641,0,0,0-1.429,3.88c0,.228.076.56-.232.612s-.318-.3-.389-.506a5.868,5.868,0,0,1,.325-4.715c.182-.356.186-.506-.2-.668a12.6,12.6,0,0,1-1.163-.645,14.134,14.134,0,0,0-1.116,5.76,4.391,4.391,0,0,1,.034.72c-.018.2,0,.49-.274.536s-.389-.2-.47-.393a10.527,10.527,0,0,1-.684-3.064,8.531,8.531,0,0,1,.582-3.9,15.678,15.678,0,0,0-2.2,1.567.523.523,0,0,0-.182.332c-.154,1.708-.617,3.446.467,5.043.115.17.258.406.017.588-.2.152-.378-.037-.527-.135a4.761,4.761,0,0,1-2.108-3.339c-.022-.129-.022-.262-.036-.393,0-.013-.03-.023-.119-.087-.6.566-1.21,1.149-1.829,1.723-.169.157-.1.308-.035.475a3.187,3.187,0,0,0,.614,1c.13.137.358.265.182.484s-.363.029-.537-.038a3.207,3.207,0,0,1-1.031-.564c-.216-.195-.343-.231-.576,0-4.126,4.153-7.684,8.7-9.85,14.208a23.3,23.3,0,0,0-1.114,3.841,10.994,10.994,0,0,1-.395,1.386c-.071.2-.1.533-.43.484-.3-.045-.3-.355-.343-.577a8.338,8.338,0,0,1,.04-2.748c.924-7.083,4.532-12.7,9.628-17.47,2.579-2.417,5.48-4.439,8.276-6.59.414-.318.816-.651,1.256-1a9.631,9.631,0,0,1-2.948-4.627c-.058-.222-.277-.487.012-.641.323-.172.364.195.494.372a13.1,13.1,0,0,0,4.263,3.644c2.31,1.3,4.822,2.169,7.212,3.3a51.217,51.217,0,0,1,18.588,14.907,15.317,15.317,0,0,1,3.366,7.319c.081.573.074,1.159.113,1.847a12.121,12.121,0,0,1,4.279-3.605.423.423,0,0,0,.254-.458,79.692,79.692,0,0,1,.339-9.587c.15-2.033.292-4.067.452-6.1.017-.22-.15-.626.257-.6.353.02.247.407.252.65.107,4.888.633,9.763.47,14.659a1,1,0,0,0,.057.225,2.2,2.2,0,0,0,.74-.645c.107-.135.2-.329.414-.206s.107.315.054.475a5.507,5.507,0,0,1-1.715,2.743,12.2,12.2,0,0,1-1.207.907,9.692,9.692,0,0,0-4.547,7.472c-.193,1.411-.375,2.825-.5,4.244a18.427,18.427,0,0,1-2.241,7.154,23.505,23.505,0,0,0-2.589,5.868c-.123.555-.238,1.113-.383,1.663a3.488,3.488,0,0,0,.385,2.783c.145.245.433.55.025.786-.437.253-.576-.166-.725-.433a7.54,7.54,0,0,1-.52-7.049A22.813,22.813,0,0,1,224,182.792a19.16,19.16,0,0,0,2.595-8.728,29.6,29.6,0,0,1,1.09-6.6c.026-.083.1-.2.07-.243-.856-1.075-.669-2.439-.99-3.656a13.464,13.464,0,0,0-3.012-5.831,76.241,76.241,0,0,0-13.047-11.693,1.112,1.112,0,0,0-1.561.047c-.366.314-.721.64-1.082.959-.129.114-.271.285-.452.155-.206-.147-.024-.32.047-.461A5.431,5.431,0,0,1,209.276,145.141Z" transform="translate(-161.654 -133.295)"/><path class="a" d="M159.1,186.76c-.241-1.735-.506-3.4-.7-5.071-.328-2.874-.607-5.753-.911-8.63-.048-.458-.123-.912-.181-1.368-.023-.182-.017-.377.209-.417.267-.047.245.186.277.347.991,4.935,2.422,9.781,3.081,14.781a1.642,1.642,0,0,0,1.226,1.59c3.927,1.436,5.784,4.6,6.833,8.4.4,1.455.805,2.911,1.169,4.376a17.2,17.2,0,0,0,3.3,6.649,19.431,19.431,0,0,1,2.6,4.093c.92,2.038.527,4.021-.158,6-.084.243-.228.434-.537.323-.226-.082-.32-.25-.21-.463.9-1.724.016-3.23-.581-4.768a14.857,14.857,0,0,0-2.391-3.985,23.137,23.137,0,0,1-4.791-10.17,17.072,17.072,0,0,0-1.561-4.518,8.6,8.6,0,0,0-3.947-3.9c-.668-.323-1.32-.683-1.962-1.056a5.392,5.392,0,0,1-2.028-2.44c-.071-.142-.158-.288-.019-.417.187-.173.311,0,.439.113A2.157,2.157,0,0,0,159.1,186.76Z" transform="translate(-149.532 -154.893)"/><path class="a" d="M222.518,288.54c-3.089,2.517-6.339,3.652-10.115,1.922a6.792,6.792,0,0,1,0,1.582c-.029.16-.067.319-.253.331-.2.013-.232-.158-.259-.312a5.769,5.769,0,0,0-2.081-3.333,66.335,66.335,0,0,1-5.814-5.226,26.063,26.063,0,0,1-4.8-6.859c-.085-.191-.364-.438-.081-.618.312-.2.451.147.6.343,1.746,2.278,3.452,4.586,5.4,6.7,1.405,1.527,3.188,2.618,4.637,4.073,2.294,2.3,5.019,2.455,8.016,2.114,3.649-.416,6.025-2.638,8.085-5.328,2.171-2.833,4.216-5.762,6.323-8.643a14.211,14.211,0,0,1,1.109-1.384c.373-.395.8-1.041,1.4-.594.555.414.11,1.009-.15,1.473a13.732,13.732,0,0,1-.872,1.312,93.643,93.643,0,0,1-6.933,8.919,20.7,20.7,0,0,1-1.823,1.8,4.427,4.427,0,0,0-1.381,4.464,3.274,3.274,0,0,0,.077.319c.057.215.033.4-.212.471s-.357-.1-.436-.292a5.18,5.18,0,0,1-.435-1.71C222.5,289.63,222.518,289.191,222.518,288.54Z" transform="translate(-173.24 -212.845)"/><path class="a" d="M273.718,299.076a11.381,11.381,0,0,1-.668,1.537.676.676,0,0,1-1.231-.555,2.3,2.3,0,0,1,.21-.48c2.349-3.947,4.356-8.1,7.107-11.806.757-1.019,1.544-2.018,2.325-3.019.113-.144.238-.411.454-.276.252.156.007.352-.088.492a10.667,10.667,0,0,0-1.525,4.43,3.062,3.062,0,0,0,1.929,3.583,48.036,48.036,0,0,1,1.3-7.543,27.059,27.059,0,0,1,1.343-4.387c.068-.179.088-.513.4-.405s.111.38.054.559a47.814,47.814,0,0,0-1.843,6.907c-.239,1.49-.317,3.006-.472,4.509-.02.2-.087.386-.1.582-.033.527-.38.508-.751.447a3.413,3.413,0,0,1-2.594-2.893,7.261,7.261,0,0,1,.122-2.458,90.863,90.863,0,0,0-5.587,9.773,19.621,19.621,0,0,0,4.686,2.455,35.705,35.705,0,0,0,9.323,1.423,28.107,28.107,0,0,1,4.392.268c.15.028.3.071.449.1a.6.6,0,0,1,.579.6.656.656,0,0,1-.564.7,11.613,11.613,0,0,1-2.662.373,34.25,34.25,0,0,1-8.24-.619A18.849,18.849,0,0,1,273.718,299.076Z" transform="translate(-214.635 -217.093)"/><path class="a" d="M261.624,287.085c-.783.468-1.561.944-2.352,1.4-.208.119-.464.385-.692.093-.267-.342.112-.511.3-.68,1.055-.958,2.095-1.936,3.2-2.838a82.756,82.756,0,0,0,15-16.659c.341-.483.7-.956,1.058-1.425.122-.159.225-.463.492-.284.22.147.009.363-.063.523a38.4,38.4,0,0,1-2.934,5.047,66.364,66.364,0,0,1-11.207,12.589,5.358,5.358,0,0,0-.924,6.529c.161.254.6.581.308.824-.33.272-.668-.174-.909-.413a4.736,4.736,0,0,1-1.266-3.16C261.592,288.12,261.624,287.6,261.624,287.085Z" transform="translate(-207.082 -209.137)"/><path class="a" d="M192.454,294.318a6.368,6.368,0,0,1,.237,4.022,2.724,2.724,0,0,1-.894,1.424c-.1.078-.207.188-.343.065a.266.266,0,0,1-.05-.3c.093-.269.2-.535.29-.8a5.428,5.428,0,0,0-2.242-5.937c-6.115-3.595-11.808-7.72-16.4-13.209a8.938,8.938,0,0,1-.688-.879c-.141-.219-.545-.461-.3-.7.273-.27.485.154.67.32,1.241,1.111,2.435,2.278,3.7,3.362a79.235,79.235,0,0,0,11.322,8.533c2.263,1.326,4.56,2.6,6.84,3.893a6.966,6.966,0,0,1,.726.448c.206.152.628.223.431.6-.183.351-.5.114-.755.031C194.17,294.916,193.35,294.627,192.454,294.318Z" transform="translate(-157.882 -215.547)"/><path class="a" d="M322.892,204.88a36.994,36.994,0,0,1-1.679,9.872c-.627,2.322-1.192,4.667-1.955,6.944a25.942,25.942,0,0,1-4.347,8.042,2.7,2.7,0,0,1-.307.342c-.194.172-.345.54-.687.243-.309-.269-.076-.526.091-.744a17.921,17.921,0,0,0,2.944-6.533c.648-2.5,1.766-4.846,2.523-7.313a61.632,61.632,0,0,0,2.612-12.907,15.13,15.13,0,0,0,0-2.692c-.019-.2-.15-.528.126-.567.365-.052.252.348.28.536A33.429,33.429,0,0,1,322.892,204.88Z" transform="translate(-238.522 -170.986)"/><path class="a" d="M139.442,215.194c.276.053.22.292.235.468a21.5,21.5,0,0,0,.678,3.809,62.732,62.732,0,0,0,6.033,14.707c.866,1.524,1.607,3.107,2.321,4.705a15.06,15.06,0,0,0,3.088,4.534,3.105,3.105,0,0,1,.391.442.38.38,0,0,1-.071.532c-.173.16-.323.069-.466-.044a12.38,12.38,0,0,1-1.725-1.615,29.1,29.1,0,0,1-5.2-8.151c-1.267-3.165-2.824-6.207-3.953-9.434a28.888,28.888,0,0,1-1.486-9.49C139.286,215.491,139.227,215.3,139.442,215.194Z" transform="translate(-139.279 -179.877)"/><path class="a" d="M183.85,297.651a5.319,5.319,0,0,1,.32,3.591,2.951,2.951,0,0,1-1.755,2c-.426.171-.626.077-.794-.346-.535-1.346-.84-2.764-1.313-4.127a44.788,44.788,0,0,0-3.332-6.835c-.085-.154-.176-.3-.258-.458a.228.228,0,0,1,.09-.335c.125-.076.212.007.279.089a3.514,3.514,0,0,1,.258.379,56.192,56.192,0,0,1,4.979,10.9c.914-.213,1.54-1.913,1.26-3.014a10.385,10.385,0,0,0-1.843-3.949c-.217-.276-.465-.527-.677-.8-.119-.156-.462-.294-.256-.516.242-.26.413.1.573.224,1.293,1.017,2.515,2.117,3.7,3.254a96.9,96.9,0,0,1,6.634,7.3c.511.6,1.062,1.167,1.583,1.759a2.9,2.9,0,0,1,.453.642.637.637,0,0,1-.239.866.6.6,0,0,1-.831-.114,5.411,5.411,0,0,1-.522-.674C189.88,303.8,186.8,300.787,183.85,297.651Z" transform="translate(-160.552 -223.056)"/><path class="a" d="M287.8,249.71a1.934,1.934,0,0,1-1.257-.5.39.39,0,0,1-.078-.534c.113-.189.283-.171.46-.093a2.582,2.582,0,0,0,.245.093c.974.317.978.288,1.279-.7a39.075,39.075,0,0,1,10.076-17.122c.182-.177.388-.6.643-.387s-.105.5-.242.724a130.727,130.727,0,0,0-6.988,11.721c-.921,1.884-1.894,3.746-2.654,5.706A1.531,1.531,0,0,1,287.8,249.71Z" transform="translate(-222.955 -188.537)"/><path class="a" d="M174.776,260.354a1.251,1.251,0,0,1-1.223-.679,106.337,106.337,0,0,0-12.1-15.926c-.157-.178-.535-.384-.323-.627s.455.111.648.243a36.078,36.078,0,0,1,9.352,9.944,29.051,29.051,0,0,1,3.115,5.685c.217.559.5.64.974.392q.175-.091.354-.173c.2-.093.4-.362.623-.067.239.311.013.531-.2.73A1.642,1.642,0,0,1,174.776,260.354Z" transform="translate(-151.67 -195.715)"/><path class="a" d="M265.67,203.484c-.071.312-.226.481-.557.383a.379.379,0,0,1-.151-.12c-1.459-1.636-3.183-1.529-5.044-.829-2.5.939-5.077,1.612-7.639,2.341a4.785,4.785,0,0,1-1.368.134c-.376,0-.7-.1-.8-.519a.762.762,0,0,1,.4-.887,4.929,4.929,0,0,1,1.089-.6,56.132,56.132,0,0,1,8.384-2.32,6.978,6.978,0,0,1,3.8.443,3.311,3.311,0,0,1,1.716,1.551C265.563,203.2,265.612,203.345,265.67,203.484Z" transform="translate(-202.3 -171.795)"/><path class="a" d="M204.981,205.407a14.5,14.5,0,0,1-3.747-.9c-1.825-.526-3.647-1.056-5.429-1.722a3.816,3.816,0,0,0-4.555.943c-.165.184-.345.269-.569.1s-.172-.375-.077-.587a3.53,3.53,0,0,1,2.486-1.959,9.613,9.613,0,0,1,5.244.221q2.611.752,5.219,1.519a7.4,7.4,0,0,1,1.914.84c.378.242.753.508.6,1.043C205.9,205.459,205.419,205.4,204.981,205.407Z" transform="translate(-168.425 -171.809)"/><path class="a" d="M256.56,220.01a13.908,13.908,0,0,1-5.1-1,1.732,1.732,0,0,0-1.569-.026c-.177.088-.435.279-.555-.023-.1-.251.178-.4.355-.48a6.8,6.8,0,0,1,4.176-.779,14.269,14.269,0,0,0,8.421-.838,10.678,10.678,0,0,0,1.912-1c.2-.132.407-.3.63-.029.239.288.043.467-.151.664A11.7,11.7,0,0,1,256.56,220.01Z" transform="translate(-201.866 -180.158)"/><path class="a" d="M206.784,218.889c-.026.279-.23.268-.378.179a2.289,2.289,0,0,0-2.112.08c-4.68,1.6-8.955.987-12.671-2.453-.1-.089-.187-.185-.281-.276a.4.4,0,0,1-.083-.581c.175-.229.371-.157.574-.021a11.452,11.452,0,0,0,2.636,1.3,14.168,14.168,0,0,0,7.75.59,6.793,6.793,0,0,1,4.119.731A.7.7,0,0,1,206.784,218.889Z" transform="translate(-168.792 -180.159)"/><path class="a" d="M225.473,272.775a23.272,23.272,0,0,1-5.7-.566c-1.076-.174-2.182-.156-3.274-.241-.217-.017-.567.046-.579-.264-.011-.271.331-.311.549-.385a4.248,4.248,0,0,1,2.275,0,7.444,7.444,0,0,0,3.372-.188,5.3,5.3,0,0,1,3.293.111.541.541,0,0,0,.44.019,5.378,5.378,0,0,1,3.673-.054,7.971,7.971,0,0,0,3.572.031,3.451,3.451,0,0,1,1.938.163c.163.069.374.13.352.332s-.251.21-.42.223a30.647,30.647,0,0,0-3.924.317A22.806,22.806,0,0,1,225.473,272.775Z" transform="translate(-182.87 -211.566)"/><path class="a" d="M162.677,331.152c-.01,0-.141,0-.273,0-.158,0-.334,0-.368-.191-.044-.245.165-.274.335-.308a15.078,15.078,0,0,0,5.4-2.427,12.579,12.579,0,0,0,2.807-2.456,21.952,21.952,0,0,0,2.292-2.609.37.37,0,0,1,.552-.169c.3.177.137.409.069.634-1.131,3.744-3.875,5.79-7.4,6.985A12.762,12.762,0,0,1,162.677,331.152Z" transform="translate(-152.219 -241.152)"/><path class="a" d="M235.952,266.07c-.109.276-.288.119-.421.045a18.711,18.711,0,0,0-3.56-1.295,5.182,5.182,0,0,0-3.1-.107,2.958,2.958,0,0,1-1.681.008,5.234,5.234,0,0,0-3.16.109,18.842,18.842,0,0,0-3.558,1.3c-.106.06-.247.169-.343.011-.129-.213.088-.25.207-.314,1.173-.63,2.333-1.285,3.527-1.875a5.073,5.073,0,0,1,3.83-.312,1,1,0,0,0,.629.006,5.331,5.331,0,0,1,4.188.461c1.042.549,2.035,1.19,3.114,1.673C235.754,265.84,235.926,265.877,235.952,266.07Z" transform="translate(-185.243 -207.298)"/><path class="a" d="M230.03,282.207a11.18,11.18,0,0,1-6.064-1.961c-.136-.093-.373-.172-.272-.384s.3-.059.459-.017a36.4,36.4,0,0,0,3.776,1.078,12.6,12.6,0,0,0,6.336-.553c.553-.2,1.125-.354,1.689-.523.155-.047.352-.207.46.014s-.135.291-.27.383A11.08,11.08,0,0,1,230.03,282.207Z" transform="translate(-187.278 -216.593)"/><path class="a" d="M238.252,252.316a14.06,14.06,0,0,1,2.2-1.564c.389-.2.842-.29,1.086.18s-.135.727-.478.934A4.14,4.14,0,0,1,238.252,252.316Z" transform="translate(-195.572 -200.01)"/><path class="a" d="M232.272,252.328a3.812,3.812,0,0,1-2.684-.506c-.327-.205-.632-.479-.4-.9.223-.408.636-.358.986-.207A6.973,6.973,0,0,1,232.272,252.328Z" transform="translate(-190.371 -200.015)"/><path class="a" d="M224.139,252.011a2.1,2.1,0,0,1-1.4-1.341c-.014-.113-.022-.222.109-.269a.22.22,0,0,1,.288.077,2.053,2.053,0,0,0,1.213.93.33.33,0,0,1,.231.417C224.51,252.045,224.31,252,224.139,252.011Z" transform="translate(-186.744 -199.89)"/><path class="a" d="M248.54,252.01c-.179.005-.371.013-.42-.21a.348.348,0,0,1,.26-.4,1.954,1.954,0,0,0,1.166-.883.238.238,0,0,1,.335-.1c.116.054.1.178.077.288A2.018,2.018,0,0,1,248.54,252.01Z" transform="translate(-201.18 -199.891)"/></g></g></svg>