<svg xmlns="http://www.w3.org/2000/svg" width="64.425" height="90.732" viewBox="0 0 64.425 90.732"><defs><style>.a{fill:#363636;}</style></defs><g transform="translate(-159.747 -123.367)"><g transform="translate(160 123.617)"><path class="a" d="M-1272.429-2511.58a13.158,13.158,0,0,1-2.318-3.666c-.464-1.029-.916-2.083-1.353-3.1-.7-1.636-1.426-3.327-2.218-4.955a12.665,12.665,0,0,0-7.3-6.414,45.127,45.127,0,0,0-6.275-1.72c-.847-.189-1.723-.383-2.58-.6l-.969-.237a47.442,47.442,0,0,1-6.094-1.776,19.4,19.4,0,0,1-2.291-1.065,7.633,7.633,0,0,1-3.921-4.775,7.635,7.635,0,0,1,1.21-6.063,15.735,15.735,0,0,1,1.751-2.307,2.536,2.536,0,0,0,.508-3.073,10.441,10.441,0,0,1-.544-1.551c-.548-1.934-.22-2.945,1.353-4.159l.022-.017c.27-.207.286-.22.172-.447a3.782,3.782,0,0,1-.342-2.7,5.7,5.7,0,0,1,1.328-2.31c.068-.078.138-.156.207-.233a4.808,4.808,0,0,0,1.071-1.568,2.38,2.38,0,0,0-.876-3.017,6.362,6.362,0,0,1-2.842-4.275,4.334,4.334,0,0,1,1.631-4.353,23.063,23.063,0,0,1,3.7-2.248l.312-.163a67.818,67.818,0,0,0,8.762-5.247,5.279,5.279,0,0,0,2.39-4.975c-.015-.175-.026-.35-.036-.519a4.149,4.149,0,0,0-.607-2.321c-.264-.37-.535-.893-.333-1.284a.9.9,0,0,1,.879-.391c.054,0,.112,0,.171.006l.013-.06c.005-.028.011-.054.017-.079.79-3.058,2.619-5.718,5.755-8.371.03-.026.062-.049.091-.069a.715.715,0,0,0,.064-.049l-.033-.271.283,0h.431l0,.252a1.175,1.175,0,0,1-.406.809c-.052.056-.1.109-.144.162a24.212,24.212,0,0,0-3.924,6.462,9.964,9.964,0,0,0-.458,4.549,12.4,12.4,0,0,1-.068,3.086,6.1,6.1,0,0,1-2.778,4.117,50.9,50.9,0,0,1-7.59,4.253q-.556.271-1.111.542c-.242.12-.485.237-.728.354a24.823,24.823,0,0,0-3.475,1.915c-1.436,1.005-1.7,1.785-1.167,3.476a8.892,8.892,0,0,0,2.029,3.3,4.99,4.99,0,0,1,1.391,3.083,5.078,5.078,0,0,1-1.075,3.226c-.069.1-.14.194-.212.292a7.8,7.8,0,0,0-.675,1.029,1.82,1.82,0,0,1,.689-.144,2.653,2.653,0,0,1,1.845,1.143l.156.167a15.641,15.641,0,0,1,2.3,3.248,5.7,5.7,0,0,0,3.272,2.98c.986.315.965.934.864,1.276a.8.8,0,0,1-.846.607,3.074,3.074,0,0,1-.358-.028l-.115-.013a11.373,11.373,0,0,0-1.163-.061,9.931,9.931,0,0,0-3.137.5,10.334,10.334,0,0,1-3.19.625,6.031,6.031,0,0,1-1.89-.3c.522,1.572-.192,2.769-.885,3.929-.114.192-.233.391-.342.585a16.135,16.135,0,0,0-1.319,2.962,5.873,5.873,0,0,0,2.826,7.405,20.986,20.986,0,0,0,7.019,2.217l.182.035c1.428.271,2.9.418,4.329.559a43.629,43.629,0,0,1,4.967.686c5.393,1.17,8.862,3.96,10.609,8.53q.162.424.326.846c.368.95.748,1.932,1.063,2.926.3.965.553,1.958.794,2.92a31.89,31.89,0,0,0,1.334,4.416c.032.078.074.157.119.24a1.383,1.383,0,0,1,.187,1.167l-.131.4Zm-30.959-43.406a1.809,1.809,0,0,0-.442,1.355c.06,1.442.462,1.928,1.59,1.928.128,0,.27-.006.42-.02a12.481,12.481,0,0,0,3.069-.807c.53-.188,1.074-.381,1.642-.544a16.228,16.228,0,0,1-4.4-2.334.6.6,0,0,0-.4-.13h-.014A1.99,1.99,0,0,0-1303.388-2554.986Zm1.49-5.055c-.355.15-.355.368-.269.867.016.092.032.187.041.278a3.309,3.309,0,0,0,1.056,1.928,14.991,14.991,0,0,0,4.112,2.794c.077.039.149.084.219.127a2.208,2.208,0,0,0,.269.149,22.578,22.578,0,0,1-1.961-3.141c-.427-.775-.868-1.577-1.369-2.316a3.532,3.532,0,0,0-.29-.354c-.05-.057-.1-.114-.149-.172a.967.967,0,0,0-.777-.393A2.4,2.4,0,0,0-1301.9-2560.041Zm26.1,28.8c-.633-.077-1.274-.164-1.9-.247l-.876-.117-.221-.03.014-.676.231-.013.307-.02c.213-.013.433-.029.653-.032.976-.019,1.969-.031,2.929-.042,2.814-.033,5.725-.067,8.579-.29a37.373,37.373,0,0,0,4.3-.615,10.943,10.943,0,0,0,7.2-4.662c1.156-1.664,2.257-3.4,3.323-5.087.527-.835,1.074-1.7,1.62-2.542l.005-.007a25.824,25.824,0,0,1,3.415-4.509,3.115,3.115,0,0,1,2.594-1.133l.083.487a3.97,3.97,0,0,0-2.2,1.964c-1,1.587-1.859,3.287-2.695,4.931-.66,1.3-1.342,2.641-2.087,3.926-.715,1.231-1.513,2.433-2.285,3.594l-.019.029c-1.992,3-4.971,4.757-9.107,5.377a34.754,34.754,0,0,1-5.184.365A71.885,71.885,0,0,1-1275.794-2531.238Zm-21.63-36.264a4.978,4.978,0,0,1-1.49-.9,5.731,5.731,0,0,0-.592-.437,1.217,1.217,0,0,1-.179-.145,1.138,1.138,0,0,0-.112-.1.2.2,0,0,0-.022.027.687.687,0,0,1-.531.368.643.643,0,0,1-.372-.138,1.045,1.045,0,0,1-.509-.964.871.871,0,0,1,.666-.783,1.227,1.227,0,0,1,.365-.058,1.7,1.7,0,0,1,1.009.413,9.362,9.362,0,0,1,1.815,2.015l.237.318.5.666Zm16.682-9.434-.234-.112.121-.229a.7.7,0,0,1,.045-.073,6.326,6.326,0,0,1-.832.059,4.877,4.877,0,0,1-2.623-.752l-.622-.382.725-.079c.258-.028.5-.044.743-.058.132-.009.261-.017.387-.027a7.347,7.347,0,0,1-1.219-.3,5.878,5.878,0,0,1-2.454-1.588l-.635-.675.888.264a12.245,12.245,0,0,0,3.578.636c.157,0,.316,0,.472-.014.709-.044,1-.1,1.049-.935.11-1.872,1.3-3.282,2.568-4.526l.4.282-.248.544c-.179.4-.365.8-.55,1.205a8.684,8.684,0,0,0-.745,2.3c-.16,1-.078,1.125.876,1.363a36.341,36.341,0,0,0,4.148.7c.452.059.919.118,1.378.183.112.015.225.034.4.061l.348.056.022.49a5.764,5.764,0,0,1-1.468.171c-.17,0-.335,0-.493-.009s-.282-.007-.419-.008h-.029c-.392,0-.569.032-.74.36a2.078,2.078,0,0,1-1.529,1.2.813.813,0,0,1-.335-.071,1.316,1.316,0,0,0-.563-.12,3.544,3.544,0,0,0-.782.122,3.81,3.81,0,0,1-.871.133A1.69,1.69,0,0,1-1280.742-2576.935Zm15.563-6.964-.774-1.3a34.3,34.3,0,0,0-4.711-5.61c-.156-.144-.323-.284-.485-.419s-.309-.258-.46-.4a3.074,3.074,0,0,0-2.092-.91,3.655,3.655,0,0,0-1.864.585,15.926,15.926,0,0,1-3.244,1.594,2.219,2.219,0,0,0-.689.47c-.061.053-.122.106-.183.157-.464.385-.77.618-1.117.618s-.658-.25-1.105-.662a3.172,3.172,0,0,1-.609-.715.964.964,0,0,1-.1-.945,5.011,5.011,0,0,0,.214-.544,3.056,3.056,0,0,1,.534-1.055.659.659,0,0,1,.306-.178c.03-.011.058-.021.079-.031l.251-.115.09.26c.074.212.15.212.187.212a.567.567,0,0,0,.246-.077l.054-.028h.061a.249.249,0,0,1,.113.026c.02-.023.04-.046.061-.068a3.457,3.457,0,0,1,1.509-.985,12.409,12.409,0,0,1,4.073-.687c.279,0,.565.01.849.029a4.989,4.989,0,0,1,3.216,1.561,33.279,33.279,0,0,1,5.425,7.433,5.946,5.946,0,0,1,1.129,2.451l-.459.177Z" transform="translate(1307.702 2601.75)"/></g></g></svg>