<svg xmlns="http://www.w3.org/2000/svg" width="36.072" height="36.064" viewBox="0 0 36.072 36.064"><defs><style>.a{fill:#fff;}</style></defs><path class="a" d="M18.028,13.758A9.246,9.246,0,1,0,27.275,23,9.232,9.232,0,0,0,18.028,13.758Zm0,15.258A6.011,6.011,0,1,1,24.04,23,6.022,6.022,0,0,1,18.028,29.016ZM29.81,13.38a2.157,2.157,0,1,1-2.157-2.157A2.152,2.152,0,0,1,29.81,13.38Zm6.124,2.189c-.137-2.889-.8-5.448-2.913-7.556S28.353,5.244,25.464,5.1c-2.978-.169-11.9-.169-14.879,0C7.7,5.236,5.145,5.9,3.028,8S.26,12.672.115,15.561c-.169,2.978-.169,11.9,0,14.879.137,2.889.8,5.448,2.913,7.556S7.7,40.765,10.585,40.91c2.978.169,11.9.169,14.879,0,2.889-.137,5.448-.8,7.556-2.913s2.768-4.667,2.913-7.556C36.1,27.463,36.1,18.546,35.934,15.569ZM32.087,33.635a6.086,6.086,0,0,1-3.428,3.428c-2.374.942-8.007.724-10.631.724S9.764,38,7.4,37.063A6.086,6.086,0,0,1,3.97,33.635C3.028,31.261,3.245,25.628,3.245,23s-.209-8.265.724-10.631A6.086,6.086,0,0,1,7.4,8.946C9.772,8,15.4,8.222,18.028,8.222s8.265-.209,10.631.724a6.086,6.086,0,0,1,3.428,3.428c.942,2.374.724,8.007.724,10.631S33.029,31.269,32.087,33.635Z" transform="translate(0.012 -4.973)"/></svg>