<svg xmlns="http://www.w3.org/2000/svg" xmlns:xlink="http://www.w3.org/1999/xlink" width="16" height="16" viewBox="0 0 16 16"><defs><style>.a{fill:none;}.b{clip-path:url(#a);}.c{clip-path:url(#b);}.d{fill:#d59f4e;}</style><clipPath id="a"><path class="a" d="M129.873,113.466l-.06.016Zm0,0h0Zm2.12-2.412c-2.076,2.776,1.058,2.978.756,1.442a3.126,3.126,0,0,0-.756-1.443Zm4.069-5.945a1.043,1.043,0,0,0-.807-.967.855.855,0,0,0-.568.2,31.832,31.832,0,0,0-2.632,3.412s-.563.762-1.2,1.6l1.075,1.509c.431-.6,2.773-3.934,4.134-5.747Zm-10.6.04c1.215,1.676,3.584,5,4.1,5.718.162-.228.576-.816,1.1-1.559L127,104.493a.765.765,0,0,0-.866-.328,1.125,1.125,0,0,0-.661.843c0,.046-.007.092-.007.139ZM122.9,119.758c-.014-1.024-.259-14.086-.089-14.854a1.455,1.455,0,0,1,.858-1.1.992.992,0,0,1,1.124.435c.076.1.226.3.429.578a1.4,1.4,0,0,1,.868-1.018,1,1,0,0,1,1.091.444c.337.432,2.242,3.1,3.562,4.949,1.419-2.005,3.573-5.021,3.873-5.242a.9.9,0,0,1,.976-.091,1.494,1.494,0,0,1,.693.956,7.169,7.169,0,0,1,.72-.868.907.907,0,0,1,1.162.038,1.835,1.835,0,0,1,.581,1.395c.022,1.106-.115,10.013-.131,11.124l-.131-11.124a1.416,1.416,0,0,0-.453-1.071.7.7,0,0,0-.9-.028c-.048.035-.347.414-.778.976q0,.061.006.124c.038,1.712-.115,12.2-.139,13.914l-.136-13.687c-1.4,1.836-3.739,4.969-4.059,5.4a3.177,3.177,0,0,1,.718,1.492c.3,1.547-2.515,1.429-1.239-.987l.378-.593-1.115-1.463c-.407.533-.83,1.093-1.139,1.517.413.612,1.357,2.161.239,2.5,1.089-.4.1-1.868-.3-2.408-.177.245-.309.437-.366.537-.653,1.147-.23,2.092.607,1.888-.931.226-1.288-.792-.674-1.956l.36-.566-4.046-5.342c-.054,2.732-.155,13.748-.16,14.13-.013-.973-.23-12.266-.12-14.5l-.568-.75a.764.764,0,0,0-.864-.329,1.121,1.121,0,0,0-.66.84c-.052.225-.174,14.277-.18,14.741Z" transform="translate(-122.753 -103.758)"/></clipPath><clipPath id="b"><rect class="a" width="16.129" height="16.382"/></clipPath></defs><g transform="translate(92 196)"><g class="b" transform="translate(-92 -196)"><g transform="translate(-0.11 -0.385)"><g class="c"><g class="c"><rect class="d" width="16.137" height="16.395" transform="translate(-0.009 -0.004)"/></g></g></g></g></g></svg>