<svg xmlns="http://www.w3.org/2000/svg" xmlns:xlink="http://www.w3.org/1999/xlink" width="124" height="100" viewBox="0 0 124 100"><defs><style>.a{fill:none;}.b,.c{fill:#363636;}.b{fill-rule:evenodd;}.d{clip-path:url(#a);}.e{clip-path:url(#b);}.f{fill:#d59f4e;}</style><clipPath id="a"><path class="a" d="M163.793,142.44c-.111.022-.227.045-.347.065Zm.015,0h0Zm12.219-9.612c-11.968,11.059,6.1,11.867,4.358,5.744-.744-2.622-2.36-3.936-4.359-5.747Zm23.452-23.686a5.05,5.05,0,0,0-4.65-3.853,6.452,6.452,0,0,0-3.276.779c-2.129.768-8.225,7.341-15.168,13.6,0,0-3.245,3.034-6.931,6.361,2.866,2.78,5.173,5.019,6.2,6.013,2.483-2.392,15.98-15.673,23.829-22.9Zm-61.1.159c7,6.679,20.658,19.909,23.626,22.781.932-.906,3.321-3.251,6.345-6.212l-21.13-19.183a5.509,5.509,0,0,0-4.993-1.306,5.263,5.263,0,0,0-3.808,3.358,4.588,4.588,0,0,0-.042.552Zm-14.77,58.206c-.078-4.079-1.495-56.123-.511-59.181a6.8,6.8,0,0,1,4.946-4.368,7.118,7.118,0,0,1,6.481,1.731c.437.386,1.305,1.2,2.473,2.3a6.837,6.837,0,0,1,5-4.057,7.114,7.114,0,0,1,6.29,1.77c1.943,1.721,12.925,12.343,20.529,19.72,8.179-7.99,20.592-20,22.324-20.887a7.106,7.106,0,0,1,5.626-.363,6.7,6.7,0,0,1,4,3.811,34.333,34.333,0,0,1,4.152-3.457,7.1,7.1,0,0,1,6.7.15,6.5,6.5,0,0,1,3.347,5.557c.125,4.405-.664,39.9-.752,44.322l-.752-44.322a5.044,5.044,0,0,0-2.612-4.267,5.506,5.506,0,0,0-5.163-.113c-.279.14-2,1.651-4.484,3.887q.025.243.033.493c.221,6.821-.664,48.594-.8,55.439l-.785-54.532c-8.077,7.316-21.548,19.8-23.4,21.5,2.159,2.168,3.3,2.983,4.138,5.946,1.75,6.164-14.494,5.693-7.141-3.933l2.179-2.363L169,126.463c-2.346,2.123-4.786,4.356-6.566,6.043,2.383,2.438,7.823,8.612,1.378,9.946,6.276-1.581.573-7.444-1.747-9.594-1.023.978-1.784,1.741-2.112,2.139-3.766,4.571-1.329,8.335,3.5,7.524-5.366.9-7.426-3.154-3.888-7.793l2.076-2.255-23.32-21.283c-.309,10.886-.893,54.776-.923,56.3-.076-3.877-1.329-48.871-.691-57.778l-3.275-2.988a5.5,5.5,0,0,0-4.981-1.309,5.252,5.252,0,0,0-3.8,3.346c-.3.9-1,56.883-1.04,58.734Z" transform="translate(-122.753 -103.758)"/></clipPath><clipPath id="b"><rect class="a" width="92.963" height="65.27"/></clipPath></defs><g transform="translate(-12.217 -18.783)"><path class="b" d="M105.776,299.456c-.5.205-.955.383-1.372.534s-.807.274-1.167.369a9.646,9.646,0,0,1-1,.22,6.968,6.968,0,0,1-.906.068,2.35,2.35,0,0,1-1.032-.22,1.763,1.763,0,0,1-.743-.7,3.886,3.886,0,0,1-.439-1.295,11.158,11.158,0,0,1-.148-1.985V294.13c0-.541,0-1.123.015-1.732s.015-1.239.028-1.875.021-1.247.036-1.835.028-1.15.043-1.663.028-.954.043-1.314c.036-.781.071-1.562.12-2.341s.1-1.541.178-2.287l-.085-.035q-.164.452-.424,1.027c-.164.383-.375.849-.629,1.39q-.912,1.951-1.86,4.033c-.629,1.39-1.274,2.807-1.918,4.259s-1.3,2.917-1.952,4.4-1.315,2.971-1.959,4.453l-.509-.021c-.141-.452-.319-.992-.524-1.609s-.439-1.287-.687-2.005-.516-1.479-.792-2.273-.565-1.609-.856-2.43-.58-1.636-.878-2.451-.574-1.6-.85-2.355-.531-1.465-.779-2.136-.46-1.26-.657-1.78c-.219-.609-.411-1.143-.574-1.609s-.3-.883-.417-1.247l-.077.027v2.888c0,1.061-.021,2.15-.049,3.252s-.085,2.2-.135,3.273-.127,2.109-.2,3.115-.156,1.931-.24,2.78q-.107,1.048-.191,1.786c-.058.493-.128.9-.2,1.239a3.155,3.155,0,0,1-.261.8,1.211,1.211,0,0,1-.39.439,1.4,1.4,0,0,1-.574.191c-.227.021-.493.033-.8.033h-.537l-.329-.021-.148-.1a14.485,14.485,0,0,0,.863-2.171,24.635,24.635,0,0,0,.657-2.545c.184-.9.353-1.821.493-2.78s.255-1.916.347-2.875.164-1.9.227-2.828.107-1.815.127-2.649.049-1.609.058-2.314.021-1.328.021-1.856a3.889,3.889,0,0,0-.077-.841,1.058,1.058,0,0,0-.248-.526,1.04,1.04,0,0,0-.5-.273,3.745,3.745,0,0,0-.814-.075c-.227,0-.493.021-.786.048s-.629.075-.986.122l-.113-.883c1.259-.281,2.3-.487,3.123-.623a12.4,12.4,0,0,1,1.946-.205,2.955,2.955,0,0,1,.644.062,1.332,1.332,0,0,1,.467.226,1.51,1.51,0,0,1,.362.41,3.442,3.442,0,0,1,.3.636q.552,1.479,1.16,3.157t1.252,3.422l1.274,3.5q.636,1.749,1.231,3.4c.148.431.291.829.417,1.191s.248.684.353.992.205.6.3.87.184.555.27.829h.071c.113-.288.227-.568.34-.849s.24-.561.375-.862.276-.617.432-.954.329-.725.524-1.15q.722-1.6,1.507-3.34c.521-1.156,1.053-2.32,1.606-3.526s1.1-2.424,1.676-3.658,1.132-2.478,1.706-3.717a.957.957,0,0,1,.255-.336,1.624,1.624,0,0,1,.353-.205,1.993,1.993,0,0,1,.4-.1,2.639,2.639,0,0,1,.39-.027,2.939,2.939,0,0,1,.657.075,3.44,3.44,0,0,1,.687.212c-.107,1.1-.2,2.15-.276,3.149s-.148,1.978-.2,2.929-.105,1.883-.148,2.813-.071,1.856-.092,2.8-.036,1.908-.049,2.89-.015,2.005-.015,3.08a14.79,14.79,0,0,0,.092,1.815,3.924,3.924,0,0,0,.329,1.226,1.521,1.521,0,0,0,.629.7,1.958,1.958,0,0,0,.986.219h.424a3.173,3.173,0,0,0,.417-.048,4.109,4.109,0,0,0,.482-.1c.178-.048.375-.11.608-.184Zm.559-5.025a9.876,9.876,0,0,1,.219-2.07,10.194,10.194,0,0,1,.644-2.018,9.684,9.684,0,0,1,1.047-1.835,7.6,7.6,0,0,1,1.45-1.5A6.8,6.8,0,0,1,111.512,286a6.318,6.318,0,0,1,2.192-.369,4.9,4.9,0,0,1,2.342.541,5.285,5.285,0,0,1,1.719,1.431,6.3,6.3,0,0,1,1.047,2.02,7.578,7.578,0,0,1,.36,2.314,9.874,9.874,0,0,1-.219,2.07,9.846,9.846,0,0,1-1.705,3.853,7.762,7.762,0,0,1-1.443,1.5,6.725,6.725,0,0,1-1.826,1.013,6.3,6.3,0,0,1-2.186.369,4.915,4.915,0,0,1-2.349-.541,5.258,5.258,0,0,1-1.713-1.431,6.425,6.425,0,0,1-1.04-2.02,7.578,7.578,0,0,1-.355-2.314Zm2.477-.954a8.468,8.468,0,0,0,.113,1.384,7.709,7.709,0,0,0,.329,1.349,6.677,6.677,0,0,0,.565,1.218,4.173,4.173,0,0,0,.8.992,3.464,3.464,0,0,0,1.032.657,3.191,3.191,0,0,0,1.274.246,2.7,2.7,0,0,0,1.33-.318,3.165,3.165,0,0,0,.986-.835,4.771,4.771,0,0,0,.7-1.191,9.357,9.357,0,0,0,.439-1.39,10.236,10.236,0,0,0,.233-1.417q.064-.709.064-1.295a9.182,9.182,0,0,0-.107-1.39,7.11,7.11,0,0,0-.34-1.349,6.809,6.809,0,0,0-.559-1.212,4.265,4.265,0,0,0-.8-.978,3.582,3.582,0,0,0-1.04-.657,3.18,3.18,0,0,0-1.267-.24,2.773,2.773,0,0,0-1.33.309,3.2,3.2,0,0,0-1,.835,4.526,4.526,0,0,0-.694,1.191,8.488,8.488,0,0,0-.439,1.384,9.869,9.869,0,0,0-.233,1.417,12.4,12.4,0,0,0-.059,1.293Zm27.528-20.2q-.371,2.545-.715,5.216t-.6,5.313c-.178,1.767-.311,3.5-.417,5.216s-.156,3.354-.156,4.93c0,.76,0,1.4.028,1.951s.043,1,.077,1.369a5.868,5.868,0,0,0,.156.9,1.386,1.386,0,0,0,.255.507.69.69,0,0,0,.347.24,1.811,1.811,0,0,0,.467.056,4.439,4.439,0,0,0,1.068-.143,7.7,7.7,0,0,0,1.167-.41l.2.52a6.06,6.06,0,0,1-.94.595,11.662,11.662,0,0,1-1.188.547,8.814,8.814,0,0,1-1.216.41,4.14,4.14,0,0,1-1.026.151,1.907,1.907,0,0,1-.559-.068.921.921,0,0,1-.411-.246,1.37,1.37,0,0,1-.291-.466,2.834,2.834,0,0,1-.191-.74c-.064-.4-.113-.87-.156-1.4s-.056-1.113-.056-1.749c0-.671.028-1.349.077-2.04s.141-1.382.255-2.067l-.092-.021a28.057,28.057,0,0,1-1.734,3.683,18.287,18.287,0,0,1-1.939,2.807,8.908,8.908,0,0,1-2,1.794,3.665,3.665,0,0,1-1.931.623,2.775,2.775,0,0,1-1.606-.458,3.668,3.668,0,0,1-1.1-1.2,6.163,6.163,0,0,1-.636-1.717,9.7,9.7,0,0,1-.205-1.993,10.825,10.825,0,0,1,.277-2.432,11.171,11.171,0,0,1,.807-2.271,10.578,10.578,0,0,1,1.259-1.985,8.251,8.251,0,0,1,1.643-1.581,7.72,7.72,0,0,1,1.972-1.04,6.728,6.728,0,0,1,2.229-.377,6.6,6.6,0,0,1,1.634.205,6.1,6.1,0,0,1,1.62.657c.036-1.137.077-2.287.135-3.464s.113-2.314.177-3.422.148-2.156.233-3.149.164-1.869.27-2.649a.816.816,0,0,1,.164-.41.913.913,0,0,1,.347-.281,1.582,1.582,0,0,1,.46-.159,2.794,2.794,0,0,1,.531-.054,3.119,3.119,0,0,1,1.315.3Zm-3.721,14.13a6.679,6.679,0,0,0-2.781-.636,5.246,5.246,0,0,0-3.369,1.164,6.152,6.152,0,0,0-1.182,1.287,7.745,7.745,0,0,0-.835,1.581,9.706,9.706,0,0,0-.679,3.573c0,.219.013.458.036.74a6.291,6.291,0,0,0,.12.862,7.14,7.14,0,0,0,.227.87,3.6,3.6,0,0,0,.368.773,1.775,1.775,0,0,0,.524.541,1.254,1.254,0,0,0,.721.205,2.646,2.646,0,0,0,1.52-.541A7.488,7.488,0,0,0,128.8,296.4a14.368,14.368,0,0,0,1.4-2.047,23.223,23.223,0,0,0,1.175-2.368,19.13,19.13,0,0,0,.835-2.411,11.493,11.493,0,0,0,.4-2.164Zm17.143,9.68c.036.021.092.048.156.083a1.839,1.839,0,0,1,.184.124.647.647,0,0,1,.141.137.248.248,0,0,1,.064.151.112.112,0,0,1-.028.075,8.231,8.231,0,0,1-1.252,1.363,7.448,7.448,0,0,1-1.387.954,6.228,6.228,0,0,1-1.464.576,6.155,6.155,0,0,1-1.479.185,5.27,5.27,0,0,1-2.284-.493,5.449,5.449,0,0,1-1.777-1.342,6.1,6.1,0,0,1-1.167-2,7.06,7.06,0,0,1-.424-2.465,9.614,9.614,0,0,1,.248-2.142,10.033,10.033,0,0,1,.7-2.047,9.824,9.824,0,0,1,1.124-1.815,8.033,8.033,0,0,1,1.507-1.452,7,7,0,0,1,1.86-.965,6.408,6.408,0,0,1,2.173-.356,5.1,5.1,0,0,1,1.458.205,3.735,3.735,0,0,1,1.216.574,2.851,2.851,0,0,1,.835.924,2.673,2.673,0,0,1-.375,3.039,5.562,5.562,0,0,1-1.9,1.295,13.793,13.793,0,0,1-2.858.862,33.931,33.931,0,0,1-3.545.487v.159a7.684,7.684,0,0,0,.329,2.349,5.882,5.882,0,0,0,.927,1.821,4.252,4.252,0,0,0,1.394,1.177,3.624,3.624,0,0,0,1.719.425,4.622,4.622,0,0,0,1.91-.445,7.086,7.086,0,0,0,2-1.442Zm-1.952-8.05a2.183,2.183,0,0,0-.164-.864,2.139,2.139,0,0,0-.445-.7,1.887,1.887,0,0,0-.679-.466,2.066,2.066,0,0,0-.85-.172,3.144,3.144,0,0,0-1.216.226,3.442,3.442,0,0,0-.986.636,4.521,4.521,0,0,0-.764.924,6.951,6.951,0,0,0-.565,1.113,8.242,8.242,0,0,0-.375,1.212,9.721,9.721,0,0,0-.212,1.218,19.268,19.268,0,0,0,2.639-.35,9.01,9.01,0,0,0,1.972-.636,3.5,3.5,0,0,0,1.224-.924,1.916,1.916,0,0,0,.419-1.223Zm6.081,11.419h-.164c.056-.636.107-1.328.156-2.082s.092-1.506.135-2.28.077-1.533.107-2.293.064-1.471.085-2.129.043-1.247.049-1.767.021-.938.021-1.239a5.36,5.36,0,0,0-.036-.636,1.013,1.013,0,0,0-.141-.452.618.618,0,0,0-.312-.267,1.55,1.55,0,0,0-.559-.089,3.434,3.434,0,0,0-.368.021c-.12.014-.261.035-.411.062s-.329.062-.516.11-.411.089-.657.151l-.156-.719a27.45,27.45,0,0,1,2.794-.849,8.057,8.057,0,0,1,1.443-.247,1.141,1.141,0,0,1,.976.391,1.841,1.841,0,0,1,.3,1.143q0,.072-.021.41c-.015.232-.028.526-.058.891s-.049.8-.085,1.272-.077,1-.12,1.554-.1,1.123-.148,1.725-.12,1.191-.177,1.788h.1a37.183,37.183,0,0,1,1.124-3.658,16.484,16.484,0,0,1,1.408-2.95,7.318,7.318,0,0,1,1.726-1.972,3.294,3.294,0,0,1,2.051-.719,2.118,2.118,0,0,1,.736.124,1.725,1.725,0,0,1,.595.336,1.757,1.757,0,0,1,.4.507,1.547,1.547,0,0,1,.141.65,1.981,1.981,0,0,1-.2.87,2.109,2.109,0,0,1-.644.733h-.077a3.263,3.263,0,0,0-.822-.507,2.18,2.18,0,0,0-.822-.151,2.416,2.416,0,0,0-.906.172,2.56,2.56,0,0,0-.792.487,5.654,5.654,0,0,0-1.1,1.384,14.164,14.164,0,0,0-.927,1.9c-.276.7-.531,1.431-.758,2.19s-.417,1.512-.58,2.239-.291,1.411-.389,2.047-.176,1.17-.212,1.609Zm14.06-11.8a3.173,3.173,0,0,0-.064-.692,1.094,1.094,0,0,0-.191-.445.729.729,0,0,0-.329-.232,1.356,1.356,0,0,0-.467-.075,4.64,4.64,0,0,0-.892.1c-.347.068-.743.159-1.182.274l-.156-.725c.493-.159.963-.318,1.415-.452s.864-.258,1.246-.356.715-.178,1-.232a3.925,3.925,0,0,1,.687-.083,1.239,1.239,0,0,1,.933.35,1.671,1.671,0,0,1,.34,1.185c0,.068,0,.226-.021.466s-.031.555-.056.932-.049.8-.085,1.287-.074,1-.12,1.547-.1,1.113-.148,1.7-.12,1.164-.178,1.749l.056.014a27.9,27.9,0,0,1,1.691-4.367,15.357,15.357,0,0,1,1.833-2.888,6.446,6.446,0,0,1,1.86-1.6,3.778,3.778,0,0,1,1.762-.487,3.072,3.072,0,0,1,1.118.205,2.549,2.549,0,0,1,.955.671,3.32,3.32,0,0,1,.672,1.191,5.484,5.484,0,0,1,.248,1.759c0,.2-.015.477-.036.808s-.053.712-.085,1.129-.074.856-.12,1.315-.085.924-.12,1.369-.067.876-.092,1.272-.036.76-.036,1.061a9.468,9.468,0,0,0,.071,1.272,2.349,2.349,0,0,0,.219.773.82.82,0,0,0,.417.39,1.646,1.646,0,0,0,.629.11,4.486,4.486,0,0,0,1.118-.143,7.238,7.238,0,0,0,1.175-.41l.2.52a5.982,5.982,0,0,1-.948.595q-.583.3-1.2.547a9.5,9.5,0,0,1-1.246.41,4.624,4.624,0,0,1-1.1.151,1.269,1.269,0,0,1-.878-.288,1.763,1.763,0,0,1-.482-.8,5.112,5.112,0,0,1-.205-1.17c-.033-.452-.049-.93-.049-1.444,0-.636.025-1.272.071-1.945s.092-1.295.148-1.9.105-1.15.148-1.643.071-.883.071-1.177a2.7,2.7,0,0,0-.46-1.725,1.481,1.481,0,0,0-1.21-.561,2.153,2.153,0,0,0-1.267.493,6.882,6.882,0,0,0-1.315,1.349,13.785,13.785,0,0,0-1.267,2.026,20.467,20.467,0,0,0-1.09,2.527,22.643,22.643,0,0,0-.807,2.84,18.172,18.172,0,0,0-.4,2.971l-2.171.261h-.164c.058-.636.107-1.328.156-2.082s.092-1.506.135-2.281.074-1.533.107-2.293.061-1.473.085-2.129.039-1.247.049-1.767.026-.941.026-1.244Zm24.925,1.226a3.235,3.235,0,0,0-.27-1.376,2.75,2.75,0,0,0-1.691-1.5,3.555,3.555,0,0,0-1.1-.184,4.477,4.477,0,0,0-1.244.151,2.276,2.276,0,0,0-.822.41,1.527,1.527,0,0,0-.454.615,2.1,2.1,0,0,0-.141.773,2.78,2.78,0,0,0,.184.965,3.744,3.744,0,0,0,.531.945l-.043.11a2.654,2.654,0,0,1-1.188.281,2.074,2.074,0,0,1-.657-.1,1.472,1.472,0,0,1-.884-.8,1.555,1.555,0,0,1-.127-.657,2.215,2.215,0,0,1,.3-1.113,3.776,3.776,0,0,1,.779-.954,5.679,5.679,0,0,1,1.132-.773,9.409,9.409,0,0,1,1.33-.576,9.152,9.152,0,0,1,1.372-.363,7.28,7.28,0,0,1,1.28-.124,5.421,5.421,0,0,1,1.86.281,3.09,3.09,0,0,1,1.252.814,3.26,3.26,0,0,1,.7,1.3,6.156,6.156,0,0,1,.227,1.726c0,.437-.021.924-.058,1.452s-.082,1.081-.127,1.657-.1,1.177-.135,1.794-.056,1.225-.056,1.835a3.525,3.525,0,0,0,.559,2.171,1.735,1.735,0,0,0,1.451.725,3.63,3.63,0,0,0,1.783-.568l.3.431a5.1,5.1,0,0,1-1.514,1.019,4.335,4.335,0,0,1-1.719.356,3.414,3.414,0,0,1-1.246-.226,2.644,2.644,0,0,1-.986-.657,2.943,2.943,0,0,1-.644-1.1,4.783,4.783,0,0,1-.227-1.533c0-.178,0-.348.013-.52a3.954,3.954,0,0,1,.071-.555h-.064a15.139,15.139,0,0,1-1.032,1.7,9.51,9.51,0,0,1-1.288,1.5,6.518,6.518,0,0,1-1.492,1.061,3.612,3.612,0,0,1-1.662.4,3.481,3.481,0,0,1-1.3-.24,2.988,2.988,0,0,1-1.67-1.657,3.338,3.338,0,0,1-.233-1.26,3.789,3.789,0,0,1,.329-1.609,4.268,4.268,0,0,1,.934-1.295,5.764,5.764,0,0,1,1.43-.986,10.435,10.435,0,0,1,1.8-.692,13.537,13.537,0,0,1,2.066-.41,18.266,18.266,0,0,1,2.214-.137c.049-.418.089-.829.12-1.218s.058-.84.058-1.3Zm-6.367,6.888a3.19,3.19,0,0,0,.092.754,1.815,1.815,0,0,0,.276.623,1.363,1.363,0,0,0,.493.425,1.5,1.5,0,0,0,.715.159,2.455,2.455,0,0,0,.961-.211,4.5,4.5,0,0,0,.976-.582,6,6,0,0,0,.927-.883,7.6,7.6,0,0,0,.792-1.129,7.325,7.325,0,0,0,.58-1.287,6.273,6.273,0,0,0,.311-1.39c-.516.014-1.019.045-1.528.1a11.366,11.366,0,0,0-1.436.232,6.782,6.782,0,0,0-1.259.425,3.76,3.76,0,0,0-1,.636,2.784,2.784,0,0,0-.657.918,2.925,2.925,0,0,0-.243,1.21Z" transform="translate(-62.945 -203.348)"/><g transform="translate(29.819 110.168)"><path class="c" d="M129.012,418.726a4.68,4.68,0,0,0,2.133.525c1.217,0,1.927-.561,1.927-1.372,0-.752-.493-1.182-1.737-1.6-1.5-.466-2.435-1.145-2.435-2.279,0-1.253,1.19-2.184,2.982-2.184a4.689,4.689,0,0,1,2.037.394l-.328.848a4.094,4.094,0,0,0-1.749-.382c-1.258,0-1.737.655-1.737,1.205,0,.752.56,1.121,1.832,1.551,1.559.525,2.352,1.182,2.352,2.363,0,1.24-1.053,2.315-3.227,2.315a5.314,5.314,0,0,1-2.352-.514Z" transform="translate(-128.711 -411.519)"/><path class="c" d="M156,425.6l-.1-.728h-.041a2.6,2.6,0,0,1-2.024.859c-1.341,0-2.024-.824-2.024-1.659,0-1.4,1.422-2.16,3.976-2.149v-.119c0-.477-.151-1.336-1.5-1.336a3.658,3.658,0,0,0-1.722.429l-.274-.692a4.568,4.568,0,0,1,2.174-.514c2.024,0,2.516,1.205,2.516,2.363v2.16a7.12,7.12,0,0,0,.11,1.384Zm-.178-2.947c-1.314-.024-2.8.18-2.8,1.3a1.005,1.005,0,0,0,1.135,1,1.645,1.645,0,0,0,1.6-.967.969.969,0,0,0,.068-.334Z" transform="translate(-145.167 -417.133)"/><path class="c" d="M181.964,418.179c0,.6.014,1.121.056,1.574h-1.067l-.068-.943h-.024a2.567,2.567,0,0,1-2.188,1.073c-1.038,0-2.284-.5-2.284-2.53v-3.378h1.2v3.2c0,1.1.383,1.837,1.477,1.837a1.749,1.749,0,0,0,1.59-.954,1.361,1.361,0,0,0,.11-.538v-3.543h1.2Zm-.821-6.694-1.668,1.706h-.862l1.2-1.706Z" transform="translate(-162.038 -411.281)"/><path class="c" d="M207.254,410.78v6.98c0,.514.014,1.1.054,1.492h-1.088l-.054-1h-.027a2.521,2.521,0,0,1-2.257,1.134,2.783,2.783,0,0,1-2.831-2.936,2.92,2.92,0,0,1,2.968-3.1,2.311,2.311,0,0,1,2,.883h.027V410.78Zm-1.2,5.048a1.621,1.621,0,0,0-.056-.442,1.73,1.73,0,0,0-1.737-1.217,2,2,0,0,0-1.983,2.226,1.927,1.927,0,0,0,1.956,2.136,1.772,1.772,0,0,0,1.764-1.253,1.59,1.59,0,0,0,.056-.453Z" transform="translate(-179.283 -410.78)"/><path class="c" d="M229.013,422.909a2,2,0,0,0,2.271,2,4.908,4.908,0,0,0,1.832-.3l.205.752a6.044,6.044,0,0,1-2.2.358,2.885,2.885,0,0,1-3.254-2.912,2.969,2.969,0,0,1,3.1-3.114,2.572,2.572,0,0,1,2.735,2.721,3.5,3.5,0,0,1-.041.49Zm3.529-.752a1.565,1.565,0,0,0-1.668-1.706,1.857,1.857,0,0,0-1.846,1.706Z" transform="translate(-198.023 -417.135)"/><path class="c" d="M262.9,422.907a2,2,0,0,0,2.269,2,4.906,4.906,0,0,0,1.832-.3l.205.752a6.044,6.044,0,0,1-2.2.358,2.885,2.885,0,0,1-3.254-2.912,2.969,2.969,0,0,1,3.1-3.107,2.572,2.572,0,0,1,2.735,2.721,3.439,3.439,0,0,1-.041.49Zm3.529-.752a1.565,1.565,0,0,0-1.668-1.706,1.857,1.857,0,0,0-1.846,1.706Z" transform="translate(-221.715 -417.132)"/><path class="c" d="M302.218,416.545h-3.577v2.9h3.993v.871h-5.183v-8.042h4.978v.872h-3.788v2.545h3.583Z" transform="translate(-246.681 -411.844)"/><path class="c" d="M319.376,424.531a3.488,3.488,0,0,0,1.59.417c.875,0,1.285-.382,1.285-.859s-.342-.776-1.231-1.062c-1.19-.371-1.749-.943-1.749-1.635,0-.93.862-1.7,2.284-1.7a3.69,3.69,0,0,1,1.627.358l-.3.763a2.853,2.853,0,0,0-1.353-.334c-.711,0-1.113.358-1.113.8,0,.477.4.692,1.258.978,1.148.382,1.737.883,1.737,1.749,0,1.015-.9,1.73-2.475,1.73a4.218,4.218,0,0,1-1.861-.394Z" transform="translate(-261.828 -417.133)"/><path class="c" d="M339.1,414.389v1.659h1.722v.8H339.1v3.114c0,.716.232,1.121.9,1.121a3.044,3.044,0,0,0,.7-.072l.056.8a3.34,3.34,0,0,1-1.067.143,1.8,1.8,0,0,1-1.3-.442,1.953,1.953,0,0,1-.464-1.5v-3.15H336.9v-.8h1.026V414.67Z" transform="translate(-274.305 -413.351)"/><path class="c" d="M354.734,417.057a2,2,0,0,0,2.271,2,4.906,4.906,0,0,0,1.832-.3l.205.752a6.043,6.043,0,0,1-2.2.358,2.885,2.885,0,0,1-3.255-2.912,2.969,2.969,0,0,1,3.1-3.114,2.572,2.572,0,0,1,2.735,2.721,3.448,3.448,0,0,1-.041.49Zm3.529-.752a1.565,1.565,0,0,0-1.668-1.706,1.857,1.857,0,0,0-1.846,1.706Zm.288-4.82-1.668,1.706h-.862l1.2-1.706Z" transform="translate(-285.908 -411.281)"/><path class="c" d="M378.647,414.389v1.659h1.722v.8h-1.722v3.114c0,.716.232,1.121.9,1.121a3.037,3.037,0,0,0,.7-.072l.056.8a3.34,3.34,0,0,1-1.067.143,1.8,1.8,0,0,1-1.3-.442,1.951,1.951,0,0,1-.464-1.5v-3.15h-1.026v-.8h1.026V414.67Z" transform="translate(-301.96 -413.351)"/><path class="c" d="M395.762,412.89c.014.358-.288.644-.767.644a.673.673,0,0,1-.725-.644.69.69,0,0,1,.752-.657.671.671,0,0,1,.74.657Zm-1.341,7.4v-5.776h1.2v5.781Z" transform="translate(-313.963 -411.815)"/><path class="c" d="M409.452,425.427a4.988,4.988,0,0,1-1.908.334,2.953,2.953,0,0,1-3.3-2.947,3.171,3.171,0,0,1,3.556-3.068,4.529,4.529,0,0,1,1.668.3l-.274.811a3.122,3.122,0,0,0-1.395-.275,2.176,2.176,0,1,0-.041,4.343,3.841,3.841,0,0,0,1.477-.286Z" transform="translate(-321.075 -417.169)"/><path class="c" d="M429.589,425.6l-.1-.728h-.041a2.6,2.6,0,0,1-2.025.859c-1.341,0-2.024-.824-2.024-1.659,0-1.4,1.422-2.16,3.976-2.149v-.119c0-.477-.149-1.336-1.5-1.336a3.658,3.658,0,0,0-1.722.429l-.274-.692a4.569,4.569,0,0,1,2.174-.514c2.024,0,2.516,1.205,2.516,2.363v2.16a7.116,7.116,0,0,0,.11,1.383Zm-.178-2.947c-1.312-.024-2.8.18-2.8,1.3a1.005,1.005,0,0,0,1.135,1,1.645,1.645,0,0,0,1.6-.967.981.981,0,0,0,.068-.334Z" transform="translate(-336.139 -417.133)"/></g><g transform="translate(28.105 18.783)"><g class="d" transform="translate(0 0)"><g transform="translate(-0.632 -1.534)"><g class="e"><g class="e"><rect class="f" width="93.013" height="65.321" transform="translate(-0.05 -0.016)"/></g></g></g></g></g><path class="b" d="M67.532,390.813c82.667-.646,41.333-.646,124,0-82.667.646-41.333.646-124,0" transform="translate(-55.315 -286.046)"/></g></svg>