<svg xmlns="http://www.w3.org/2000/svg" width="122.807" height="100" viewBox="0 0 122.807 100"><defs><style>.a,.b{fill:#fff;}.a{fill-rule:evenodd;}.c{fill:none;}.d{fill:#d59f4e;}</style></defs><path class="a" d="M105.432,301.98c-.495.225-.943.419-1.361.585s-.8.3-1.152.408a8.728,8.728,0,0,1-.99.241,6.213,6.213,0,0,1-.894.075,2.129,2.129,0,0,1-1.019-.241,1.833,1.833,0,0,1-.734-.772,4.581,4.581,0,0,1-.433-1.418,13.529,13.529,0,0,1-.146-2.178v-2.528c0-.592,0-1.225.015-1.9s.015-1.361.027-2.054.021-1.361.036-2.011.027-1.259.042-1.821.027-1.046.042-1.439c.036-.855.069-1.711.124-2.563s.1-1.688.176-2.5l-.084-.038q-.162.494-.418,1.126c-.162.419-.371.93-.619,1.522q-.9,2.137-1.837,4.418c-.619,1.522-1.258,3.074-1.894,4.665s-1.279,3.2-1.929,4.822-1.3,3.254-1.935,4.878l-.5-.023c-.14-.494-.314-1.089-.517-1.763s-.433-1.409-.678-2.2-.51-1.62-.782-2.489-.558-1.763-.845-2.661-.573-1.793-.866-2.685-.567-1.753-.839-2.58-.525-1.6-.77-2.339-.454-1.379-.65-1.949c-.215-.667-.406-1.252-.567-1.763s-.3-.967-.412-1.361l-.077.03v3.164c0,1.161-.021,2.355-.048,3.563s-.084,2.407-.134,3.584-.124,2.314-.194,3.413-.155,2.114-.238,3.045q-.105,1.148-.188,1.956c-.057.545-.124.99-.2,1.361a3.726,3.726,0,0,1-.259.871,1.141,1.141,0,0,1-.951.69,7.74,7.74,0,0,1-.789.037h-.531l-.324-.023-.146-.1a16.926,16.926,0,0,0,.852-2.378q.392-1.373.65-2.787c.182-.98.349-1.994.487-3.045s.247-2.1.343-3.149.162-2.076.224-3.1.105-1.988.124-2.9.048-1.763.057-2.535.021-1.454.021-2.033a4.714,4.714,0,0,0-.077-.922,1.216,1.216,0,0,0-.247-.576,1,1,0,0,0-.495-.3,3.343,3.343,0,0,0-.8-.082c-.224,0-.487.023-.776.052s-.619.082-.974.136l-.113-.967c1.237-.308,2.273-.534,3.084-.681a11.078,11.078,0,0,1,1.921-.225,2.647,2.647,0,0,1,.636.068,1.267,1.267,0,0,1,.461.248,1.613,1.613,0,0,1,.358.449,3.971,3.971,0,0,1,.293.7q.546,1.62,1.146,3.458t1.237,3.749l1.258,3.832q.628,1.915,1.216,3.719c.146.472.287.908.412,1.3s.247.749.349,1.089.2.653.293.953.182.609.266.908h.069c.113-.316.224-.622.337-.93s.238-.615.371-.945.272-.681.427-1.046.324-.794.517-1.259q.714-1.756,1.485-3.658c.515-1.266,1.04-2.542,1.586-3.862s1.091-2.655,1.655-4.006,1.113-2.715,1.685-4.07a1.048,1.048,0,0,1,.247-.368,1.574,1.574,0,0,1,.349-.225,1.814,1.814,0,0,1,.391-.113,2.35,2.35,0,0,1,.385-.03,2.626,2.626,0,0,1,.649.082,3.154,3.154,0,0,1,.678.231c-.105,1.2-.2,2.355-.272,3.448s-.146,2.167-.194,3.209-.1,2.062-.146,3.082-.069,2.033-.09,3.067-.036,2.09-.048,3.165-.015,2.2-.015,3.373a17.946,17.946,0,0,0,.09,1.987,4.675,4.675,0,0,0,.324,1.344,1.619,1.619,0,0,0,.619.765,1.778,1.778,0,0,0,.974.241h.418a2.821,2.821,0,0,0,.412-.052,3.717,3.717,0,0,0,.475-.113c.176-.052.371-.12.6-.2Zm.552-5.5a12.386,12.386,0,0,1,.852-4.476,10.959,10.959,0,0,1,1.034-2.011,8.017,8.017,0,0,1,1.431-1.643,6.558,6.558,0,0,1,1.8-1.109,5.69,5.69,0,0,1,2.165-.408,4.448,4.448,0,0,1,2.312.592,5.388,5.388,0,0,1,1.7,1.568,7.19,7.19,0,0,1,1.034,2.212,9.138,9.138,0,0,1,.355,2.535,11.951,11.951,0,0,1-.217,2.267,11.4,11.4,0,0,1-1.684,4.22,8.187,8.187,0,0,1-1.425,1.643,6.486,6.486,0,0,1-1.8,1.11,5.673,5.673,0,0,1-2.159.408,4.469,4.469,0,0,1-2.32-.592,5.363,5.363,0,0,1-1.691-1.568,7.343,7.343,0,0,1-1.027-2.212,9.136,9.136,0,0,1-.35-2.535Zm2.446-1.046a10.257,10.257,0,0,0,.112,1.514,9.218,9.218,0,0,0,.324,1.479,7.707,7.707,0,0,0,.558,1.334,4.518,4.518,0,0,0,.789,1.089,3.4,3.4,0,0,0,1.019.719,2.884,2.884,0,0,0,1.258.272,2.458,2.458,0,0,0,1.313-.349,3.235,3.235,0,0,0,.974-.915,5.382,5.382,0,0,0,.692-1.3,11.083,11.083,0,0,0,.433-1.522,12.35,12.35,0,0,0,.23-1.552q.063-.777.063-1.419a11.132,11.132,0,0,0-.105-1.522,8.487,8.487,0,0,0-.337-1.477,7.866,7.866,0,0,0-.552-1.327,4.609,4.609,0,0,0-.789-1.071,3.511,3.511,0,0,0-1.027-.719,2.871,2.871,0,0,0-1.251-.263,2.522,2.522,0,0,0-1.313.338,3.264,3.264,0,0,0-.99.915,5.109,5.109,0,0,0-.685,1.3,10.047,10.047,0,0,0-.433,1.515,11.892,11.892,0,0,0-.23,1.552q-.062.706-.058,1.416Zm27.185-22.122q-.371,2.787-.706,5.718t-.594,5.82c-.176,1.936-.307,3.832-.412,5.718s-.155,3.676-.155,5.4c0,.833,0,1.537.027,2.137s.042,1.089.077,1.5a7.065,7.065,0,0,0,.155.983,1.588,1.588,0,0,0,.247.555.685.685,0,0,0,.343.263,1.622,1.622,0,0,0,.461.061,3.977,3.977,0,0,0,1.055-.156,7.122,7.122,0,0,0,1.152-.449l.194.569a5.939,5.939,0,0,1-.928.651,11.04,11.04,0,0,1-1.173.6,8.124,8.124,0,0,1-1.2.449,3.719,3.719,0,0,1-1.013.166,1.708,1.708,0,0,1-.552-.075.9.9,0,0,1-.406-.272,1.527,1.527,0,0,1-.287-.511,3.386,3.386,0,0,1-.188-.81c-.063-.442-.113-.953-.155-1.537s-.056-1.225-.056-1.917c0-.735.027-1.477.077-2.235s.14-1.514.247-2.264l-.09-.023a32.359,32.359,0,0,1-1.712,4.034,20.23,20.23,0,0,1-1.915,3.074,9.185,9.185,0,0,1-1.971,1.964,3.381,3.381,0,0,1-1.906.681,2.544,2.544,0,0,1-1.586-.5,3.893,3.893,0,0,1-1.091-1.312,7.229,7.229,0,0,1-.628-1.881,11.748,11.748,0,0,1-.2-2.178,12.755,12.755,0,0,1,1.07-5.151,11.835,11.835,0,0,1,1.237-2.178,8.6,8.6,0,0,1,1.623-1.732,7.4,7.4,0,0,1,1.947-1.139,6.056,6.056,0,0,1,2.2-.408,5.911,5.911,0,0,1,1.608.225,5.706,5.706,0,0,1,1.6.719c.036-1.246.077-2.5.134-3.794s.113-2.535.176-3.749.146-2.362.23-3.448.162-2.042.266-2.9a.951.951,0,0,1,.162-.449.928.928,0,0,1,.343-.309,1.465,1.465,0,0,1,.454-.174,2.5,2.5,0,0,1,.525-.058,2.832,2.832,0,0,1,1.3.331Zm-3.674,15.477a6.068,6.068,0,0,0-2.746-.7,4.868,4.868,0,0,0-3.327,1.276,6.536,6.536,0,0,0-1.167,1.409,8.837,8.837,0,0,0-.824,1.732,11.659,11.659,0,0,0-.671,3.914c0,.241.012.5.036.817a7.6,7.6,0,0,0,.124.943,8.515,8.515,0,0,0,.224.953,4.15,4.15,0,0,0,.364.847,1.868,1.868,0,0,0,.517.592,1.156,1.156,0,0,0,.713.225,2.455,2.455,0,0,0,1.5-.592,7.784,7.784,0,0,0,1.494-1.568,15.908,15.908,0,0,0,1.383-2.242,26.655,26.655,0,0,0,1.16-2.593,22.543,22.543,0,0,0,.824-2.641,13.819,13.819,0,0,0,.4-2.37Zm16.929,10.6c.036.023.09.052.155.091a1.806,1.806,0,0,1,.182.136.673.673,0,0,1,.14.15.287.287,0,0,1,.063.166.131.131,0,0,1-.027.082,8.74,8.74,0,0,1-1.237,1.5,7.382,7.382,0,0,1-1.37,1.046,5.806,5.806,0,0,1-1.446.63,5.514,5.514,0,0,1-1.461.2,4.777,4.777,0,0,1-2.255-.545,5.474,5.474,0,0,1-1.754-1.47,6.878,6.878,0,0,1-1.152-2.189,8.494,8.494,0,0,1-.418-2.7,11.627,11.627,0,0,1,.247-2.347,11.829,11.829,0,0,1,.692-2.242,11.01,11.01,0,0,1,1.113-1.988,8.375,8.375,0,0,1,1.485-1.59,6.7,6.7,0,0,1,1.837-1.058,5.766,5.766,0,0,1,2.145-.391,4.574,4.574,0,0,1,1.44.225,3.539,3.539,0,0,1,1.2.629,3.035,3.035,0,0,1,.824,1.011,3.18,3.18,0,0,1-.371,3.329,5.508,5.508,0,0,1-1.879,1.418,12.647,12.647,0,0,1-2.822.945,30.412,30.412,0,0,1-3.5.534v.174a9.276,9.276,0,0,0,.324,2.573,6.73,6.73,0,0,0,.916,1.994,4.342,4.342,0,0,0,1.376,1.289,3.3,3.3,0,0,0,1.7.466,4.2,4.2,0,0,0,1.885-.487,7.068,7.068,0,0,0,1.979-1.581Zm-1.929-8.817a2.622,2.622,0,0,0-.162-.946,2.389,2.389,0,0,0-.44-.765,1.993,1.993,0,0,0-1.509-.7,2.836,2.836,0,0,0-1.2.248,3.382,3.382,0,0,0-.974.7,4.878,4.878,0,0,0-.755,1.012,7.961,7.961,0,0,0-.558,1.225,9.77,9.77,0,0,0-.371,1.327,11.729,11.729,0,0,0-.209,1.334,17.273,17.273,0,0,0,2.607-.383,8.291,8.291,0,0,0,1.947-.7,3.513,3.513,0,0,0,1.209-1.012,2.25,2.25,0,0,0,.414-1.34Zm6.005,12.507h-.162c.056-.7.105-1.454.155-2.28s.09-1.65.134-2.5.077-1.679.105-2.512.063-1.612.084-2.332.042-1.361.048-1.936.021-1.028.021-1.361a6.5,6.5,0,0,0-.036-.7,1.2,1.2,0,0,0-.14-.494.64.64,0,0,0-.308-.293,1.4,1.4,0,0,0-.552-.1,3.033,3.033,0,0,0-.364.023c-.124.016-.259.038-.406.068s-.324.068-.51.12-.406.1-.65.166l-.155-.787a25.181,25.181,0,0,1,2.759-.93,7.249,7.249,0,0,1,1.425-.272,1.074,1.074,0,0,1,.964.429,2.187,2.187,0,0,1,.293,1.252q0,.079-.021.449c-.015.255-.027.576-.057.976s-.048.871-.084,1.394-.077,1.089-.124,1.7-.1,1.225-.146,1.89-.124,1.3-.176,1.958h.1q.463-2.033,1.113-4.006a18.982,18.982,0,0,1,1.391-3.232,7.825,7.825,0,0,1,1.7-2.16,3.058,3.058,0,0,1,2.025-.787,1.908,1.908,0,0,1,.727.136,1.667,1.667,0,0,1,.588.368,1.909,1.909,0,0,1,.391.555,1.85,1.85,0,0,1,.14.712,2.362,2.362,0,0,1-.194.953,2.253,2.253,0,0,1-.636.8h-.069a3.186,3.186,0,0,0-.812-.555,1.966,1.966,0,0,0-.812-.165,2.18,2.18,0,0,0-.895.188,2.5,2.5,0,0,0-.782.534,6.129,6.129,0,0,0-1.091,1.515,16.277,16.277,0,0,0-.915,2.077c-.272.765-.525,1.568-.742,2.4s-.412,1.657-.573,2.45-.287,1.545-.385,2.242-.173,1.282-.209,1.763Zm13.885-12.919a3.844,3.844,0,0,0-.063-.758,1.271,1.271,0,0,0-.188-.487.726.726,0,0,0-.324-.255,1.219,1.219,0,0,0-.461-.082,4.152,4.152,0,0,0-.881.113c-.343.075-.734.174-1.167.3l-.155-.794c.487-.174.951-.349,1.4-.494s.854-.282,1.23-.391.706-.195.99-.255a3.509,3.509,0,0,1,.678-.09,1.157,1.157,0,0,1,.922.383,1.975,1.975,0,0,1,.336,1.3c0,.075,0,.248-.021.511s-.031.608-.056,1.021-.048.871-.084,1.409-.073,1.089-.124,1.695-.094,1.225-.146,1.868-.124,1.276-.176,1.917l.056.016a32.653,32.653,0,0,1,1.67-4.784,17.167,17.167,0,0,1,1.81-3.164,6.6,6.6,0,0,1,1.837-1.756,3.459,3.459,0,0,1,1.739-.534,2.771,2.771,0,0,1,1.1.225,2.536,2.536,0,0,1,.943.735,3.756,3.756,0,0,1,.664,1.3,6.617,6.617,0,0,1,.247,1.926c0,.218-.015.523-.036.885s-.052.78-.084,1.236-.073.937-.124,1.44-.084,1.012-.124,1.5-.067.96-.09,1.394-.036.833-.036,1.161a11.492,11.492,0,0,0,.069,1.394,2.79,2.79,0,0,0,.215.847.85.85,0,0,0,.412.426,1.479,1.479,0,0,0,.619.12,4.016,4.016,0,0,0,1.1-.156,6.685,6.685,0,0,0,1.16-.449l.194.569a5.858,5.858,0,0,1-.937.652,12.443,12.443,0,0,1-1.181.6,8.749,8.749,0,0,1-1.23.449,4.146,4.146,0,0,1-1.089.166,1.174,1.174,0,0,1-.866-.316,1.979,1.979,0,0,1-.475-.871,6.154,6.154,0,0,1-.2-1.282c-.032-.494-.048-1.02-.048-1.582,0-.7.025-1.394.069-2.13s.09-1.419.146-2.076.1-1.259.146-1.8.069-.967.069-1.289a3.205,3.205,0,0,0-.454-1.89,1.41,1.41,0,0,0-1.2-.615,2.014,2.014,0,0,0-1.251.544,7.241,7.241,0,0,0-1.3,1.477,15.435,15.435,0,0,0-1.251,2.219,23.78,23.78,0,0,0-1.076,2.768,26.943,26.943,0,0,0-.8,3.111,21.959,21.959,0,0,0-.4,3.254l-2.144.286h-.145c.057-.7.105-1.454.155-2.28s.09-1.65.134-2.5.073-1.679.105-2.512.061-1.613.084-2.332.038-1.361.048-1.936.026-1.031.026-1.361ZM191.45,291.5a3.88,3.88,0,0,0-.266-1.507,2.829,2.829,0,0,0-1.67-1.643,3.2,3.2,0,0,0-1.083-.2,4.012,4.012,0,0,0-1.229.166,2.17,2.17,0,0,0-.812.449,1.675,1.675,0,0,0-.448.681,2.521,2.521,0,0,0-.14.847,3.341,3.341,0,0,0,.182,1.058,4.245,4.245,0,0,0,.525,1.035l-.042.12a2.408,2.408,0,0,1-1.173.308,1.861,1.861,0,0,1-.65-.113,1.519,1.519,0,0,1-.873-.871,1.867,1.867,0,0,1-.124-.719,2.633,2.633,0,0,1,.293-1.225,4.079,4.079,0,0,1,.769-1.046,5.627,5.627,0,0,1,1.113-.847,8.845,8.845,0,0,1,1.313-.63,8.334,8.334,0,0,1,1.361-.4,6.5,6.5,0,0,1,1.264-.136,4.878,4.878,0,0,1,1.837.308,3.041,3.041,0,0,1,1.237.892,3.706,3.706,0,0,1,.692,1.425,7.438,7.438,0,0,1,.224,1.89c0,.479-.021,1.011-.057,1.59s-.082,1.184-.124,1.815-.094,1.289-.134,1.964-.056,1.341-.056,2.011a4.19,4.19,0,0,0,.552,2.378,1.664,1.664,0,0,0,1.433.794,3.345,3.345,0,0,0,1.76-.622l.3.472a5.04,5.04,0,0,1-1.494,1.116,3.924,3.924,0,0,1-1.7.391,3.079,3.079,0,0,1-1.23-.248,2.61,2.61,0,0,1-.974-.719,3.317,3.317,0,0,1-.636-1.2,5.767,5.767,0,0,1-.224-1.679c0-.195,0-.381.012-.569a4.781,4.781,0,0,1,.069-.609h-.063a17.019,17.019,0,0,1-1.019,1.861,10.2,10.2,0,0,1-1.272,1.643,6.486,6.486,0,0,1-1.473,1.161,3.287,3.287,0,0,1-1.64.442,3.045,3.045,0,0,1-2.935-2.077,4,4,0,0,1-.23-1.379,4.542,4.542,0,0,1,.324-1.763,4.692,4.692,0,0,1,.922-1.419,5.716,5.716,0,0,1,1.412-1.08,9.71,9.71,0,0,1,1.774-.758,12.214,12.214,0,0,1,2.04-.449,16.3,16.3,0,0,1,2.186-.15c.048-.459.088-.908.124-1.334s.057-.92.057-1.428Zm-6.287,7.545a3.857,3.857,0,0,0,.09.826,2.1,2.1,0,0,0,.272.681,1.4,1.4,0,0,0,.487.466,1.36,1.36,0,0,0,.706.174,2.225,2.225,0,0,0,.949-.231,4.371,4.371,0,0,0,.964-.637,6.233,6.233,0,0,0,.915-.966,8.4,8.4,0,0,0,1.355-2.645,7.516,7.516,0,0,0,.307-1.522c-.51.016-1.006.049-1.509.1a10.2,10.2,0,0,0-1.419.255,6.255,6.255,0,0,0-1.237.466,3.69,3.69,0,0,0-.99.7,3.064,3.064,0,0,0-.65,1,3.509,3.509,0,0,0-.24,1.326Z" transform="translate(-74.869 -223.994)"/><g transform="translate(19.269 90.565)"><path class="b" d="M129.043,419.384a5.127,5.127,0,0,0,2.336.574c1.333,0,2.111-.615,2.111-1.5,0-.824-.545-1.295-1.906-1.751-1.647-.51-2.667-1.254-2.667-2.5,0-1.372,1.3-2.392,3.267-2.392a5.139,5.139,0,0,1,2.231.432l-.359.928a4.482,4.482,0,0,0-1.915-.418c-1.378,0-1.906.717-1.906,1.321,0,.824.613,1.225,2.007,1.7,1.707.574,2.576,1.295,2.576,2.587,0,1.361-1.153,2.536-3.54,2.536a5.821,5.821,0,0,1-2.576-.562Z" transform="translate(-128.703 -411.49)"/><path class="b" d="M156.4,426.17l-.1-.8h-.045a2.844,2.844,0,0,1-2.218.941c-1.469,0-2.218-.9-2.218-1.817,0-1.529,1.557-2.366,4.356-2.354v-.136c0-.523-.166-1.464-1.647-1.464a4.007,4.007,0,0,0-1.887.47l-.3-.758a5,5,0,0,1,2.381-.562c2.218,0,2.755,1.32,2.755,2.587v2.366a7.8,7.8,0,0,0,.12,1.515Zm-.195-3.228c-1.439-.026-3.071.2-3.071,1.425a1.1,1.1,0,0,0,1.244,1.1,1.8,1.8,0,0,0,1.752-1.059,1.06,1.06,0,0,0,.075-.366Z" transform="translate(-144.522 -416.891)"/><path class="b" d="M182.495,418.817c0,.653.016,1.225.061,1.725h-1.169l-.075-1.033h-.026a2.811,2.811,0,0,1-2.4,1.176c-1.138,0-2.5-.545-2.5-2.772v-3.7h1.319v3.5c0,1.2.419,2.012,1.619,2.012a1.917,1.917,0,0,0,1.741-1.046,1.489,1.489,0,0,0,.12-.588v-3.881h1.319Zm-.9-7.332-1.827,1.869h-.945l1.319-1.869Z" transform="translate(-162.76 -411.262)"/><path class="b" d="M207.846,410.78v7.651c0,.562.016,1.2.059,1.634h-1.191l-.059-1.1h-.03a2.761,2.761,0,0,1-2.472,1.242,3.048,3.048,0,0,1-3.1-3.216,3.2,3.2,0,0,1,3.251-3.4,2.531,2.531,0,0,1,2.188.967h.03V410.78Zm-1.319,5.528a1.771,1.771,0,0,0-.061-.485,1.9,1.9,0,0,0-1.906-1.333,2.193,2.193,0,0,0-2.178,2.438,2.111,2.111,0,0,0,2.143,2.339,1.94,1.94,0,0,0,1.932-1.372,1.743,1.743,0,0,0,.061-.5Z" transform="translate(-180.407 -410.78)"/><path class="b" d="M229.122,423.215a2.195,2.195,0,0,0,2.487,2.195,5.375,5.375,0,0,0,2.007-.328l.225.824a6.621,6.621,0,0,1-2.412.392,3.16,3.16,0,0,1-3.564-3.19,3.252,3.252,0,0,1,3.4-3.41,2.817,2.817,0,0,1,2.995,2.98,3.837,3.837,0,0,1-.045.536Zm3.865-.824a1.714,1.714,0,0,0-1.827-1.869,2.034,2.034,0,0,0-2.023,1.869Z" transform="translate(-199.546 -416.891)"/><path class="b" d="M263.013,423.212a2.194,2.194,0,0,0,2.486,2.194,5.376,5.376,0,0,0,2.007-.327l.225.824a6.621,6.621,0,0,1-2.412.392,3.16,3.16,0,0,1-3.564-3.19,3.252,3.252,0,0,1,3.394-3.4,2.817,2.817,0,0,1,3,2.98,3.777,3.777,0,0,1-.045.536Zm3.865-.824a1.714,1.714,0,0,0-1.827-1.869,2.034,2.034,0,0,0-2.023,1.869Z" transform="translate(-223.762 -416.887)"/><path class="b" d="M302.673,416.952h-3.918v3.176h4.374v.953h-5.677v-8.809H302.9v.953h-4.149v2.787h3.925Z" transform="translate(-249.223 -411.802)"/><path class="b" d="M319.406,424.992a3.822,3.822,0,0,0,1.743.456c.953,0,1.408-.418,1.408-.941s-.374-.849-1.348-1.164c-1.3-.408-1.915-1.033-1.915-1.79,0-1.018.943-1.857,2.5-1.857a4.042,4.042,0,0,1,1.782.392l-.329.836a3.132,3.132,0,0,0-1.482-.366c-.779,0-1.225.392-1.225.871,0,.523.434.758,1.378,1.071,1.258.418,1.906.967,1.906,1.915,0,1.111-.99,1.895-2.71,1.895a4.628,4.628,0,0,1-2.042-.432Z" transform="translate(-264.62 -416.889)"/><path class="b" d="M339.312,414.389v1.817H341.2v.871h-1.887v3.41c0,.784.255,1.225.99,1.225a3.333,3.333,0,0,0,.765-.079l.061.871a3.661,3.661,0,0,1-1.169.157,1.971,1.971,0,0,1-1.423-.485,2.139,2.139,0,0,1-.509-1.646V417.08H336.9v-.871h1.123v-1.515Z" transform="translate(-277.316 -413.251)"/><path class="b" d="M354.843,417.588a2.195,2.195,0,0,0,2.487,2.194,5.374,5.374,0,0,0,2.007-.328l.225.824a6.62,6.62,0,0,1-2.411.392,3.16,3.16,0,0,1-3.565-3.19,3.252,3.252,0,0,1,3.4-3.41,2.817,2.817,0,0,1,2.995,2.98,3.777,3.777,0,0,1-.045.536Zm3.865-.824a1.714,1.714,0,0,0-1.827-1.869,2.034,2.034,0,0,0-2.023,1.869Zm.316-5.279-1.827,1.869h-.945l1.319-1.869Z" transform="translate(-289.376 -411.262)"/><path class="b" d="M378.859,414.389v1.817h1.881v.871h-1.887v3.41c0,.784.255,1.225.99,1.225a3.322,3.322,0,0,0,.765-.079l.061.871a3.661,3.661,0,0,1-1.169.157,1.971,1.971,0,0,1-1.423-.485,2.137,2.137,0,0,1-.509-1.646V417.08h-1.123v-.871h1.123v-1.515Z" transform="translate(-305.545 -413.251)"/><path class="b" d="M395.9,412.953c.016.392-.316.705-.84.705a.737.737,0,0,1-.794-.705.756.756,0,0,1,.824-.72.735.735,0,0,1,.81.72Zm-1.469,8.1V414.73h1.319v6.332Z" transform="translate(-319.309 -411.776)"/><path class="b" d="M409.948,425.971a5.464,5.464,0,0,1-2.09.366,3.235,3.235,0,0,1-3.609-3.228,3.473,3.473,0,0,1,3.895-3.36,4.959,4.959,0,0,1,1.827.328l-.3.889a3.422,3.422,0,0,0-1.527-.3,2.382,2.382,0,1,0-.045,4.757,4.209,4.209,0,0,0,1.619-.313Z" transform="translate(-326.147 -416.925)"/><path class="b" d="M429.988,426.17l-.1-.8h-.045a2.846,2.846,0,0,1-2.218.941c-1.469,0-2.218-.9-2.218-1.817,0-1.529,1.557-2.366,4.356-2.354v-.136c0-.523-.163-1.464-1.647-1.464a4.006,4.006,0,0,0-1.887.47l-.3-.758a5,5,0,0,1,2.381-.562c2.218,0,2.755,1.32,2.755,2.587v2.366a7.793,7.793,0,0,0,.12,1.515Zm-.195-3.228c-1.438-.026-3.071.2-3.071,1.425a1.1,1.1,0,0,0,1.244,1.1,1.8,1.8,0,0,0,1.752-1.059,1.072,1.072,0,0,0,.075-.366Z" transform="translate(-340.631 -416.889)"/></g><path class="a" d="M67.532,390.859c81.871-.708,40.936-.708,122.807,0-81.871.708-40.936.708-122.807,0" transform="translate(-67.532 -306.21)"/><g transform="translate(17.403 0)"><path class="c" d="M161.914,146.126c-.107.025-.217.049-.331.071Zm.014,0ZM173.587,135.6c-11.421,12.116,5.817,13,4.158,6.292-.709-2.872-2.252-4.311-4.16-6.295Zm22.377-25.943a5.048,5.048,0,0,0-4.434-4.22,5.533,5.533,0,0,0-3.127.854c-2.037.841-7.848,8.04-14.474,14.892,0,0-3.1,3.323-6.614,6.967,2.735,3.045,4.936,5.5,5.912,6.586,2.369-2.619,15.248-17.167,22.738-25.082Zm-58.3.174c6.683,7.316,19.712,21.806,22.544,24.952.889-.992,3.17-3.56,6.054-6.807L146.1,106.964a4.791,4.791,0,0,0-4.765-1.431,5.319,5.319,0,0,0-3.634,3.676,5.76,5.76,0,0,0-.04.6ZM123.57,173.583c-.074-4.468-1.426-61.472-.488-64.821a6.877,6.877,0,0,1,4.719-4.784,6.2,6.2,0,0,1,6.184,1.9c.417.423,1.245,1.31,2.36,2.52a6.8,6.8,0,0,1,4.774-4.443,6.209,6.209,0,0,1,6,1.939c1.854,1.884,12.333,13.518,19.589,21.6,7.8-8.751,19.654-21.91,21.3-22.878a5.99,5.99,0,0,1,5.369-.4,6.872,6.872,0,0,1,3.812,4.174,34.282,34.282,0,0,1,3.962-3.787,6.012,6.012,0,0,1,6.39.165,7.327,7.327,0,0,1,3.194,6.087c.12,4.825-.634,43.7-.719,48.546l-.719-48.546a5.675,5.675,0,0,0-2.493-4.674,4.663,4.663,0,0,0-4.927-.124c-.266.154-1.911,1.808-4.278,4.257q.024.272.031.545c.211,7.471-.634,53.229-.762,60.716l-.749-59.729c-7.708,8.013-20.562,21.685-22.325,23.551,2.06,2.374,3.146,3.267,3.955,6.513,1.671,6.751-13.831,6.236-6.814-4.307l2.079-2.587-6.131-6.383c-2.239,2.325-4.567,4.765-6.265,6.619,2.277,2.671,7.465,9.433,1.318,10.891,5.992-1.732.546-8.153-1.667-10.508-.977,1.071-1.7,1.906-2.016,2.343-3.6,5.006-1.268,9.129,3.339,8.24-5.12.987-7.086-3.454-3.715-8.536l1.981-2.469L137.609,111.9c-.295,11.923-.852,60-.881,61.669-.073-4.246-1.268-53.528-.659-63.285l-3.125-3.267a4.782,4.782,0,0,0-4.753-1.434,5.309,5.309,0,0,0-3.63,3.665c-.286.98-.959,62.3-.992,64.332Z" transform="translate(-122.752 -103.758)"/><path class="d" d="M123.571,173.582l0-.016q0-.017,0-.041C123.57,173.545,123.571,173.564,123.571,173.582Zm13.157-.021c-.073-4.247-1.268-53.528-.659-63.285L132.944,107a4.783,4.783,0,0,0-4.753-1.434,5.308,5.308,0,0,0-3.63,3.665c-.285.975-.951,61.6-.991,64.291-.084-4.87-1.421-61.428-.487-64.765a6.88,6.88,0,0,1,4.72-4.784,6.2,6.2,0,0,1,6.184,1.9c.417.423,1.246,1.31,2.359,2.521a6.8,6.8,0,0,1,4.774-4.444,6.209,6.209,0,0,1,6,1.939c1.854,1.885,12.333,13.519,19.589,21.6,7.8-8.751,19.649-21.909,21.3-22.878a6,6,0,0,1,5.369-.4,6.874,6.874,0,0,1,3.813,4.174,34.285,34.285,0,0,1,3.962-3.787,6.014,6.014,0,0,1,6.39.165,7.33,7.33,0,0,1,3.193,6.087c.119,4.825-.634,43.7-.718,48.546l-.718-48.546a5.676,5.676,0,0,0-2.492-4.673,4.663,4.663,0,0,0-4.927-.124c-.266.153-1.911,1.808-4.278,4.257q.024.267.032.54c.211,7.471-.634,53.225-.762,60.722l-.75-59.729c-7.708,8.013-20.562,21.685-22.324,23.55,2.06,2.374,3.145,3.268,3.949,6.513,1.67,6.752-13.831,6.236-6.814-4.308l2.079-2.588-6.131-6.384c-2.239,2.325-4.567,4.771-6.266,6.619,2.274,2.67,7.465,9.432,1.315,10.894,5.988-1.731.547-8.154-1.667-10.509-.976,1.071-1.7,1.907-2.016,2.343-3.594,5.006-1.268,9.129,3.339,8.241-5.12.988-7.086-3.454-3.71-8.535l1.981-2.47L137.609,111.9C137.314,123.821,136.756,171.894,136.728,173.561Zm36.858-37.966,0,0c-11.42,12.113,5.817,13,4.158,6.292C177.036,139.017,175.494,137.579,173.586,135.595Zm-31.044-30.218a4.661,4.661,0,0,0-1.206.159,5.321,5.321,0,0,0-3.634,3.678,5.769,5.769,0,0,0-.04.6l0,.01c6.684,7.316,19.713,21.807,22.544,24.953.889-.993,3.169-3.56,6.055-6.8L146.1,106.967A4.871,4.871,0,0,0,142.542,105.377Zm48.8.054a5.537,5.537,0,0,0-2.943.857c-2.031.841-7.849,8.041-14.474,14.891,0,0-3.1,3.324-6.614,6.968,2.735,3.045,4.936,5.5,5.912,6.586,2.369-2.62,15.249-17.166,22.738-25.081l0,0a5.051,5.051,0,0,0-4.437-4.221Q191.437,105.431,191.346,105.431ZM161.583,146.2l.331-.071C161.808,146.15,161.7,146.175,161.583,146.2Zm.345-.071h0Z" transform="translate(-122.752 -103.758)"/></g></svg>